<svg width="27" height="27" viewBox="0 0 27 27" fill="none" xmlns="http://www.w3.org/2000/svg">
<circle cx="13.5" cy="13.5" r="13.5" fill="#FBAB1E"/>
<path fill-rule="evenodd" clip-rule="evenodd" d="M12.8022 5.70337H10.4295C10.3431 5.70321 10.2579 5.72308 10.1805 5.76143C8.93893 6.38223 8.03565 7.45076 7.45282 8.3239C7.2094 8.69122 6.98793 9.07262 6.78959 9.46612L6.73376 9.57442C6.65896 9.72069 6.57857 9.87366 6.53949 10.03H12.8022V5.70337ZM6.25588 11.4256C5.84276 14.0328 6.06942 16.4769 6.28715 17.9027C6.44793 18.9601 7.37019 19.6601 8.38848 19.6601H11.1285V18.9735C10.7344 18.9065 10.3626 18.7444 10.0454 18.5012C9.62545 18.182 9.32052 17.7351 9.17654 17.2276C9.03256 16.7201 9.05732 16.1797 9.2471 15.6875C9.5642 14.8557 10.1493 14.169 10.7287 13.6777C11.3216 13.1753 12.0909 12.722 12.9574 12.5053C13.3147 12.416 13.6876 12.416 14.0438 12.5053C14.9102 12.722 15.6795 13.1753 16.2735 13.6777C16.8541 14.169 17.438 14.8557 17.7551 15.6875C17.9449 16.1797 17.9697 16.7201 17.8257 17.2276C17.6817 17.7351 17.3768 18.182 16.9568 18.5012C16.6396 18.7444 16.2678 18.9065 15.8738 18.9735V19.6601H18.6138C19.6321 19.6601 20.5543 18.9601 20.7151 17.9027C20.9317 16.4769 21.1584 14.0328 20.7452 11.4256H6.25588ZM20.4605 10.03H14.1978V5.70337H16.5705C16.6572 5.70303 16.7429 5.72291 16.8206 5.76143C18.0611 6.38223 18.9644 7.45076 19.5472 8.3239C19.842 8.76605 20.063 9.17023 20.2104 9.46612C20.302 9.64923 20.3946 9.83458 20.4605 10.03ZM10.8895 17.3913C10.7094 17.2547 10.5788 17.063 10.5175 16.8453C10.4562 16.6277 10.4677 16.396 10.5501 16.1855C10.7589 15.6361 11.1698 15.1326 11.6298 14.7429C12.0954 14.3488 12.6771 14.0138 13.2946 13.8597C13.4291 13.8262 13.5698 13.8262 13.7043 13.8597C14.3229 14.0138 14.9046 14.3488 15.3702 14.7429C15.8302 15.1337 16.2411 15.6361 16.4499 16.1843C16.5322 16.395 16.5435 16.6268 16.482 16.8444C16.4206 17.0621 16.2897 17.2537 16.1094 17.3902C15.9571 17.5052 15.7779 17.5791 15.5889 17.6051C15.3999 17.6311 15.2073 17.6083 15.0297 17.5387C14.8487 17.4685 14.6642 17.4077 14.477 17.3567V20.339C14.477 20.4673 14.4517 20.5943 14.4026 20.7129C14.3535 20.8314 14.2816 20.9391 14.1908 21.0298C14.1001 21.1205 13.9924 21.1925 13.8739 21.2416C13.7553 21.2907 13.6283 21.316 13.5 21.316C13.3717 21.316 13.2447 21.2907 13.1261 21.2416C13.0076 21.1925 12.8999 21.1205 12.8092 21.0298C12.7185 20.9391 12.6465 20.8314 12.5974 20.7129C12.5483 20.5943 12.523 20.4673 12.523 20.339V17.3578C12.3354 17.4084 12.1506 17.4688 11.9692 17.5387C11.6131 17.6749 11.2022 17.628 10.8895 17.3913Z" fill="white"/>
</svg>
