<svg width="18" height="18" viewBox="0 0 18 18" fill="none" xmlns="http://www.w3.org/2000/svg">
<path fill-rule="evenodd" clip-rule="evenodd" d="M9.74996 2.25C9.74996 2.05109 9.67094 1.86032 9.53028 1.71967C9.38963 1.57902 9.19887 1.5 8.99996 1.5C8.80104 1.5 8.61028 1.57902 8.46963 1.71967C8.32897 1.86032 8.24996 2.05109 8.24996 2.25V2.8125H7.8322C7.02823 2.81245 6.25445 3.11879 5.6684 3.66918C5.08234 4.21956 4.72807 4.9726 4.67771 5.775L4.51196 8.4255C4.44788 9.43591 4.10864 10.4095 3.53096 11.241C3.41143 11.4128 3.3384 11.6126 3.31896 11.821C3.29953 12.0294 3.33435 12.2392 3.42004 12.4302C3.50573 12.6211 3.63938 12.7866 3.80798 12.9106C3.97658 13.0346 4.1744 13.1129 4.38221 13.1378L6.93746 13.4437V14.25C6.93746 14.797 7.15475 15.3216 7.54155 15.7084C7.92834 16.0952 8.45295 16.3125 8.99996 16.3125C9.54696 16.3125 10.0716 16.0952 10.4584 15.7084C10.8452 15.3216 11.0625 14.797 11.0625 14.25V13.4437L13.6177 13.137C13.8254 13.112 14.0231 13.0338 14.1916 12.9098C14.3601 12.7859 14.4936 12.6205 14.5793 12.4296C14.665 12.2388 14.6999 12.0291 14.6805 11.8208C14.6612 11.6125 14.5883 11.4128 14.469 11.241C13.8913 10.4095 13.552 9.43591 13.488 8.4255L13.3222 5.77575C13.272 4.97322 12.9178 4.21999 12.3318 3.66945C11.7457 3.11891 10.9718 2.81246 10.1677 2.8125H9.74996V2.25ZM7.8322 3.9375C7.31439 3.93744 6.81601 4.13473 6.43854 4.48921C6.06107 4.84368 5.83289 5.3287 5.80046 5.8455L5.63546 8.496C5.55834 9.71156 5.1501 10.8828 4.45496 11.883C4.44631 11.8954 4.44102 11.9099 4.43961 11.9249C4.43819 11.94 4.44071 11.9552 4.4469 11.969C4.45309 11.9828 4.46275 11.9948 4.47493 12.0038C4.48712 12.0128 4.50143 12.0184 4.51646 12.0203L7.31921 12.357C8.43596 12.4905 9.56396 12.4905 10.6807 12.357L13.4835 12.0203C13.4985 12.0184 13.5128 12.0128 13.525 12.0038C13.5372 11.9948 13.5468 11.9828 13.553 11.969C13.5592 11.9552 13.5617 11.94 13.5603 11.9249C13.5589 11.9099 13.5536 11.8954 13.545 11.883C12.8501 10.8828 12.4421 9.71149 12.3652 8.496L12.1995 5.8455C12.167 5.3287 11.9388 4.84368 11.5614 4.48921C11.1839 4.13473 10.6855 3.93744 10.1677 3.9375H7.8322ZM8.99996 15.1875C8.48246 15.1875 8.06246 14.7675 8.06246 14.25V13.6875H9.93746V14.25C9.93746 14.7675 9.51746 15.1875 8.99996 15.1875Z" fill="white"/>
</svg>
