<svg width="36" height="37" viewBox="0 0 36 37" fill="none" xmlns="http://www.w3.org/2000/svg">
<path d="M17.8378 2.45941C9.1419 2.45941 2.22974 9.58103 2.22974 18.5405C2.22974 27.4999 9.1419 34.6216 17.8378 34.6216C26.5338 34.6216 33.446 27.4999 33.446 18.5405C33.446 9.58103 26.5338 2.45941 17.8378 2.45941ZM17.8378 32.3243C10.4797 32.3243 4.45947 26.1216 4.45947 18.5405C4.45947 10.9594 10.4797 4.75671 17.8378 4.75671C25.196 4.75671 31.2162 10.9594 31.2162 18.5405C31.2162 26.1216 25.196 32.3243 17.8378 32.3243Z" fill="#DA1E28"/>
<path d="M23.858 26.581L17.8377 20.3783L11.8175 26.581L10.0337 24.7432L16.054 18.5405L10.0337 12.3378L11.8175 10.4999L17.8377 16.7026L23.858 10.4999L25.6418 12.3378L19.6215 18.5405L25.6418 24.7432L23.858 26.581Z" fill="#DA1E28"/>
</svg>
