<svg width="117" height="38" viewBox="0 0 117 38" fill="none" xmlns="http://www.w3.org/2000/svg">
<path opacity="0.05" d="M92.367 0.999747C91.2956 1.13868 90.292 1.31887 89.5109 1.58601C88.2609 2.01355 87.7585 2.60166 87.1859 3.15592C85.9844 4.31883 84.3005 5.43142 82.1915 6.45614C80.5907 7.23388 78.6603 7.98331 76.0413 8.39845C71.2694 9.15491 65.58 8.63562 60.4404 8.18274C55.3008 7.72986 49.2794 7.40574 45.0561 8.43952C41.2052 9.38228 39.7467 11.2761 35.0849 11.7161C30.2726 12.1702 25.2782 10.725 20.3892 11.0871C16.7924 11.3533 14.6213 12.4857 11.6598 13.1862C10.8773 13.3713 9.93093 13.4397 8.91356 13.433C4.13187 13.4013 0 16.6223 0 21.4041V29.9998C0 34.418 3.58172 37.9997 8 37.9997H109C113.418 37.9997 117 34.418 117 29.9998V11.4585C117 6.1882 111.83 1.74153 106.585 1.219C105.979 1.15854 105.345 1.086 104.684 0.999747C96.367 -0.0851363 92.367 0.999747 92.367 0.999747Z" fill="#5D768B"/>
</svg>
