<svg width="40" height="40" viewBox="0 0 40 40" fill="none" xmlns="http://www.w3.org/2000/svg">
<path d="M19.9999 3.33331C10.8333 3.33331 3.33325 10.8333 3.33325 20C3.33325 29.1666 10.8333 36.6666 19.9999 36.6666C29.1666 36.6666 36.6666 29.1666 36.6666 20C36.6666 10.8333 29.1666 3.33331 19.9999 3.33331ZM19.9999 33.3333C12.6499 33.3333 6.66659 27.35 6.66659 20C6.66659 12.65 12.6499 6.66665 19.9999 6.66665C27.3499 6.66665 33.3333 12.65 33.3333 20C33.3333 27.35 27.3499 33.3333 19.9999 33.3333ZM27.6499 12.6333L16.6666 23.6166L12.3499 19.3166L9.99992 21.6666L16.6666 28.3333L29.9999 15L27.6499 12.6333Z" fill="#00E222"/>
</svg>
