<svg width="87" height="86" viewBox="0 0 87 86" fill="none" xmlns="http://www.w3.org/2000/svg">
<g opacity="0.1">
<path d="M43.5 0C67.2317 0 86.5 19.2683 86.5 43C86.5 66.7317 67.2317 86 43.5 86C19.7683 86 0.5 66.7317 0.5 43C0.5 19.2683 19.7683 0 43.5 0Z" fill="#78C841"/>
</g>
<g opacity="0.2">
<path d="M43.5002 5.25183C64.3334 5.25183 81.2484 22.1668 81.2484 43.0001C81.2484 63.8333 64.3334 80.7483 43.5002 80.7483C22.6669 80.7483 5.75195 63.8333 5.75195 43.0001C5.75195 22.1668 22.6669 5.25183 43.5002 5.25183Z" fill="#78C841"/>
</g>
<path d="M43.4998 12.4732C60.3474 12.4732 74.0264 26.1522 74.0264 42.9999C74.0264 59.8475 60.3474 73.5265 43.4998 73.5265C26.6521 73.5265 12.9731 59.8475 12.9731 42.9999C12.9731 26.1522 26.6521 12.4732 43.4998 12.4732Z" fill="#78C841"/>
<path d="M27.5369 46.8676C31.2334 49.8325 38.6266 55.7621 38.6266 55.7621C38.6266 55.7621 52.2116 40.6196 59.0041 33.0485" stroke="white" stroke-width="7.91307" stroke-linecap="round" stroke-linejoin="round"/>
</svg>
