<svg width="41" height="40" viewBox="0 0 41 40" fill="none" xmlns="http://www.w3.org/2000/svg">
<path d="M20.6757 3.33331C11.509 3.33331 4.00903 10.8333 4.00903 20C4.00903 29.1666 11.509 36.6666 20.6757 36.6666C29.8424 36.6666 37.3424 29.1666 37.3424 20C37.3424 10.8333 29.8424 3.33331 20.6757 3.33331ZM20.6757 33.3333C13.3257 33.3333 7.34237 27.35 7.34237 20C7.34237 12.65 13.3257 6.66665 20.6757 6.66665C28.0257 6.66665 34.009 12.65 34.009 20C34.009 27.35 28.0257 33.3333 20.6757 33.3333ZM28.3257 12.6333L17.3424 23.6166L13.0257 19.3166L10.6757 21.6666L17.3424 28.3333L30.6757 15L28.3257 12.6333Z" fill="#168035"/>
</svg>
