<svg width="116" height="14" viewBox="0 0 116 14" fill="none" xmlns="http://www.w3.org/2000/svg">
<path d="M38.1775 4.83549C38.5446 4.81553 38.9119 4.86832 39.2586 4.99084C39.6052 5.11336 39.9243 5.30319 40.1976 5.54947C40.4708 5.79574 40.6929 6.09362 40.8511 6.42603C41.0093 6.75844 41.1004 7.11885 41.1193 7.4866V7.49986C41.1237 7.56754 41.1237 7.63543 41.1193 7.70311C40.7584 7.83373 40.3853 7.92773 40.0057 7.98369L39.0993 8.12508L37.8445 8.31066L36.7551 8.47414L36.3009 8.54263H36.1928C36.237 9.31755 36.5145 10.0609 36.9889 10.6746C37.2334 10.9729 37.5437 11.2103 37.8953 11.3683C38.3414 11.5226 38.8189 11.5629 39.2846 11.4854C39.813 11.4169 40.3158 11.2164 40.7466 10.9021C40.8033 10.8651 40.8564 10.823 40.9054 10.7762L41.0929 11.1937C40.7935 11.6798 40.3782 12.0837 39.8844 12.3691C39.3892 12.6453 38.8345 12.7969 38.2679 12.8109C37.7319 12.829 37.1978 12.7381 36.6978 12.5436C36.2609 12.3641 35.8671 12.0938 35.5423 11.7505C35.2291 11.4089 34.9823 11.0118 34.8145 10.5796C34.6471 10.1438 34.5474 9.68477 34.519 9.21866C34.4969 8.68649 34.5587 8.15415 34.7021 7.64125C34.8449 7.1512 35.0733 6.69042 35.3769 6.28035C35.6662 5.88971 36.0269 5.55761 36.4398 5.30165C36.8559 5.05656 37.3187 4.90153 37.7982 4.84654C37.9244 4.8362 38.051 4.83252 38.1775 4.83549ZM36.1531 7.87322L39.322 7.4623C39.3133 7.29834 39.2889 7.13559 39.2493 6.97627C39.1851 6.64991 39.052 6.34107 38.8589 6.07047C38.7527 5.91611 38.6117 5.78891 38.4474 5.69911C38.2831 5.60932 38.1 5.55944 37.9129 5.5535C37.6849 5.55054 37.4594 5.60187 37.2551 5.70327C37.0507 5.80467 36.8733 5.95324 36.7375 6.13675C36.427 6.58202 36.2343 7.09889 36.1774 7.63904V7.85997L36.1531 7.87322Z" fill="white"/>
<path d="M45.9244 4.83549C46.2915 4.81553 46.6588 4.86832 47.0054 4.99084C47.3521 5.11336 47.6712 5.30319 47.9445 5.54947C48.2177 5.79574 48.4398 6.09362 48.598 6.42603C48.7562 6.75844 48.8473 7.11885 48.8662 7.4866C48.8706 7.55428 48.8706 7.62218 48.8662 7.68986C48.5053 7.82048 48.1322 7.91448 47.7526 7.97043L46.8462 8.11182L45.5936 8.2974L44.491 8.46089L44.05 8.52937H43.9419C43.9851 9.3045 44.2628 10.0481 44.738 10.6613C44.9812 10.9601 45.2909 11.1976 45.6421 11.355C46.089 11.5094 46.5673 11.5497 47.0337 11.4721C47.5637 11.3964 48.0659 11.1874 48.4935 10.8646C48.5506 10.829 48.6039 10.7876 48.6523 10.7408L48.8397 11.1584C48.5404 11.6444 48.1251 12.0483 47.6313 12.3337C47.1361 12.61 46.5814 12.7616 46.0148 12.7756C45.4788 12.7936 44.9447 12.7027 44.4447 12.5082C44.0078 12.3288 43.614 12.0584 43.2891 11.7151C42.9783 11.3801 42.7317 10.9907 42.5614 10.5663C42.3936 10.1307 42.2947 9.67156 42.2681 9.20541C42.2428 8.67282 42.3024 8.1396 42.4445 7.62579C42.5887 7.13627 42.8171 6.67572 43.1193 6.26488C43.4101 5.87468 43.7714 5.54269 44.1845 5.28618C44.6013 5.04495 45.0641 4.8944 45.5429 4.84433C45.6698 4.83367 45.7972 4.83072 45.9244 4.83549ZM43.9176 7.87322L47.0866 7.4623C47.0789 7.29823 47.0545 7.13538 47.0138 6.97627C46.9514 6.64974 46.819 6.34068 46.6257 6.07047C46.519 5.91536 46.3773 5.78755 46.2122 5.69737C46.0471 5.60719 45.8632 5.55715 45.6752 5.55129C45.4471 5.54894 45.2216 5.60077 45.0173 5.70253C44.813 5.80429 44.6357 5.9531 44.4998 6.13675C44.1819 6.58005 43.9816 7.09697 43.9176 7.63904V7.85997V7.87322Z" fill="white"/>
<path d="M7.79582 12.2873C7.92793 12.2914 8.05954 12.2693 8.18302 12.222C8.30651 12.1748 8.41942 12.1036 8.51521 12.0123C8.611 11.9211 8.68776 11.8117 8.74105 11.6905C8.79434 11.5694 8.8231 11.4388 8.82567 11.3064C8.83006 11.2734 8.83006 11.24 8.82567 11.207V7.15963C8.82567 6.45267 8.82566 6.03291 8.31846 6.03291H7.58191V5.54467C8.59569 5.37348 9.59051 5.10416 10.5524 4.7405L10.6075 4.79131C10.4706 5.43523 10.4069 6.09264 10.4178 6.75092C10.7581 6.23442 11.2148 5.80533 11.7511 5.4983C12.2874 5.19128 12.8883 5.01494 13.5052 4.98352C14.6585 4.98352 15.4612 5.61757 15.4612 7.25242V11.196C15.4649 11.4999 15.4376 11.8034 15.3796 12.1017L16.7359 12.2697V12.8242H12.8855V12.2873C13.5471 12.2078 13.7544 11.8035 13.7544 11.2004V7.72079C13.7544 6.50128 13.3552 6.20303 12.6848 6.20303C11.8764 6.23986 11.1066 6.56052 10.5105 7.10882V11.1915C10.5146 11.4959 10.4843 11.7998 10.4201 12.0973L11.6484 12.2652V12.8198H7.787L7.79582 12.2873Z" fill="white"/>
<path d="M17.5959 12.2873C17.7271 12.29 17.8575 12.2667 17.9797 12.2188C18.1019 12.1709 18.2135 12.0994 18.3081 12.0083C18.4027 11.9172 18.4785 11.8084 18.5311 11.6879C18.5837 11.5675 18.6121 11.4378 18.6147 11.3064C18.6191 11.2734 18.6191 11.24 18.6147 11.207V7.15963C18.6147 6.45267 18.6147 6.03291 18.1075 6.03291H17.3842V5.54467C18.4053 5.37429 19.4075 5.10497 20.3767 4.7405L20.4296 4.79131C20.2948 5.43557 20.2312 6.09273 20.2399 6.75092C20.5805 6.23479 21.0374 5.80597 21.5736 5.499C22.1098 5.19202 22.7105 5.01546 23.3273 4.98352C24.4828 4.98352 25.2833 5.61757 25.2833 7.25242V11.196C25.2881 11.4999 25.2608 11.8035 25.2017 12.1017L26.5602 12.2697V12.8242H22.6856V12.2873C23.3471 12.2078 23.5544 11.8035 23.5544 11.2004V7.72079C23.5544 6.50128 23.1575 6.20303 22.4871 6.20303C21.6785 6.23911 20.9085 6.55987 20.3127 7.10882V11.1915C20.3157 11.4959 20.2854 11.7996 20.2223 12.0973L21.4484 12.2652V12.8198H17.587L17.5959 12.2873Z" fill="white"/>
<path d="M26.1699 2.84274C26.0798 2.63183 25.9464 2.44223 25.7785 2.2862C25.6106 2.13017 25.4119 2.01119 25.1952 1.93695V1.48184H26.1831C27.3541 1.46858 28.2252 1.4001 28.2252 1.4001L28.2914 1.46859C28.0695 1.95412 28.0327 2.50418 28.1877 3.01507L30.5297 9.28494C30.6311 9.5854 30.7502 9.98969 30.834 10.2968L33.7008 3.37738C33.9985 2.61519 33.8 2.16892 32.8937 1.91485V1.45754H35.5576L35.626 1.7116C35.626 1.7116 35.1055 2.06508 34.5234 3.47901L30.6796 12.7866H30.0181L26.1699 2.84274Z" fill="white"/>
<path d="M3.66754 4.8355C4.03494 4.81402 4.40296 4.86547 4.75046 4.98689C5.09796 5.10831 5.41809 5.29731 5.69247 5.54303C5.96684 5.78876 6.19006 6.08637 6.3493 6.41877C6.50853 6.75117 6.60065 7.11181 6.62036 7.47998V7.49324C6.62477 7.56092 6.62477 7.62881 6.62036 7.69649C6.26301 7.8264 5.89365 7.92039 5.51773 7.97707L4.56728 8.12509L3.31249 8.30404L2.2231 8.46752L1.76882 8.53601H1.66077C1.70494 9.31093 1.9825 10.0542 2.45686 10.6679C2.70424 10.978 3.02275 11.2236 3.38527 11.3837C3.83151 11.5375 4.30872 11.5784 4.77457 11.503C5.30538 11.4277 5.80843 11.2187 6.23664 10.8955C6.29457 10.8608 6.34919 10.8209 6.39983 10.7762L6.58728 11.1937C6.28788 11.6798 5.87262 12.0837 5.3788 12.3691C4.88365 12.6453 4.32894 12.7969 3.76236 12.8109C3.22486 12.8296 2.68917 12.7387 2.18782 12.5436C1.75096 12.3641 1.3571 12.0938 1.03227 11.7505C0.71909 11.4089 0.472287 11.0118 0.304543 10.5796C0.136685 10.1475 0.0355527 9.69232 0.00462993 9.22971C-0.0185596 8.6975 0.0432304 8.165 0.187665 7.6523C0.329659 7.16235 0.557395 6.70156 0.860263 6.2914C1.15042 5.9007 1.51184 5.56861 1.9254 5.3127C2.34134 5.06725 2.80417 4.91219 3.28382 4.85759C3.41125 4.84341 3.53933 4.83604 3.66754 4.8355ZM1.64312 7.87323L4.81206 7.46231C4.80312 7.29836 4.77875 7.13563 4.73928 6.97627C4.67693 6.64936 4.54368 6.34014 4.34896 6.07048C4.24306 5.91574 4.10218 5.78825 3.93777 5.69841C3.77337 5.60858 3.5901 5.55893 3.40291 5.55351C3.17489 5.55055 2.94942 5.60188 2.74508 5.70328C2.54073 5.80468 2.36334 5.95324 2.22751 6.13675C1.91677 6.5817 1.72472 7.09883 1.66959 7.63905V7.85998L1.64312 7.87323Z" fill="white"/>
<path d="M49.46 5.20037C49.4593 5.00717 49.5159 4.8181 49.6227 4.65711C49.7296 4.49613 49.8818 4.37046 50.06 4.29604C50.2383 4.22161 50.4347 4.20177 50.6243 4.23903C50.8139 4.27629 50.9881 4.36896 51.125 4.50533C51.2618 4.64169 51.3552 4.81561 51.3931 5.00505C51.4311 5.19449 51.412 5.39093 51.3382 5.56949C51.2644 5.74806 51.1393 5.90072 50.9787 6.00813C50.8181 6.11554 50.6293 6.17288 50.4361 6.17288C50.308 6.17335 50.1812 6.14854 50.0628 6.09988C49.9444 6.05122 49.8368 5.97966 49.7461 5.88931C49.6554 5.79895 49.5834 5.69158 49.5343 5.57336C49.4852 5.45514 49.46 5.32838 49.46 5.20037ZM51.2084 5.20037C51.1952 5.06353 51.1429 4.93339 51.0577 4.82551C50.9725 4.71764 50.858 4.63661 50.7279 4.59212C50.5979 4.54764 50.4577 4.54159 50.3243 4.57469C50.1909 4.6078 50.0699 4.67866 49.9757 4.77879C49.8815 4.87891 49.8182 5.00407 49.7933 5.13926C49.7684 5.27445 49.783 5.41395 49.8353 5.54105C49.8877 5.66816 49.9756 5.77748 50.0884 5.85593C50.2013 5.93438 50.3344 5.97863 50.4718 5.98338C50.6704 5.96905 50.8564 5.88058 50.9928 5.73554C51.1292 5.5905 51.2062 5.39948 51.2084 5.20037ZM49.9891 5.57936C50.0133 5.57864 50.0364 5.56919 50.0541 5.55275C50.0719 5.53632 50.0831 5.51403 50.0857 5.48998V4.88573C50.0857 4.82138 50.0857 4.80707 49.9677 4.7749V4.71054H50.3824C50.7006 4.71054 50.8007 4.82138 50.8007 4.95367C50.8007 5.08596 50.7006 5.14316 50.6184 5.19679C50.6397 5.24439 50.6674 5.28889 50.7006 5.32908L50.8151 5.51143C50.8291 5.53368 50.8487 5.55194 50.8719 5.56446C50.895 5.57698 50.921 5.58334 50.9473 5.58294V5.68663H50.6327C50.6084 5.62735 50.5798 5.56999 50.5469 5.51501L50.3896 5.29691H50.3467V5.49713C50.3503 5.51843 50.3503 5.54018 50.3467 5.56149H50.4825V5.64372H50.0106L49.9891 5.57936ZM50.3467 5.16819H50.4361C50.4718 5.16819 50.5362 5.11814 50.5362 4.993C50.5402 4.95235 50.5283 4.91171 50.503 4.87968C50.4776 4.84765 50.4408 4.82674 50.4003 4.82138H50.361L50.3467 5.16819Z" fill="white"/>
<path d="M60.7457 5.11432V1.10853H62.1256C62.4371 1.10853 62.6748 1.12766 62.8388 1.16591C63.0683 1.21874 63.2641 1.31437 63.4262 1.45282C63.6375 1.63134 63.7951 1.85995 63.899 2.13867C64.0046 2.41555 64.0574 2.73252 64.0574 3.08956C64.0574 3.39378 64.0219 3.66338 63.9509 3.89837C63.8798 4.13336 63.7887 4.32828 63.6776 4.48312C63.5665 4.63613 63.4445 4.75727 63.3115 4.84653C63.1803 4.93397 63.0209 5.00046 62.8333 5.046C62.6475 5.09154 62.4334 5.11432 62.1912 5.11432H60.7457ZM61.2758 4.6416H62.1311C62.3952 4.6416 62.6019 4.61701 62.7513 4.56782C62.9025 4.51864 63.0227 4.44942 63.112 4.36016C63.2377 4.23446 63.3352 4.06596 63.4044 3.85465C63.4754 3.64152 63.5109 3.38376 63.5109 3.08136C63.5109 2.66239 63.4417 2.34087 63.3033 2.11681C63.1667 1.89092 63 1.73973 62.8032 1.66322C62.6611 1.60857 62.4325 1.58124 62.1174 1.58124H61.2758V4.6416ZM66.7134 4.17981L67.2216 4.24266C67.1415 4.53959 66.993 4.77003 66.7762 4.93397C66.5595 5.09792 66.2826 5.17989 65.9456 5.17989C65.5211 5.17989 65.1841 5.04965 64.9346 4.78915C64.6868 4.52684 64.5629 4.15978 64.5629 3.68797C64.5629 3.19977 64.6886 2.82087 64.94 2.55127C65.1914 2.28166 65.5175 2.14686 65.9182 2.14686C66.3063 2.14686 66.6232 2.27893 66.8691 2.54307C67.1151 2.80721 67.238 3.17882 67.238 3.65791C67.238 3.68706 67.2371 3.73078 67.2353 3.78907H65.0712C65.0894 4.10786 65.1796 4.35196 65.3417 4.52137C65.5038 4.69078 65.706 4.77549 65.9483 4.77549C66.1286 4.77549 66.2826 4.72813 66.4101 4.6334C66.5376 4.53868 66.6387 4.38748 66.7134 4.17981ZM65.0985 3.38467H66.7189C66.697 3.14057 66.6351 2.95749 66.533 2.83544C66.3764 2.64599 66.1733 2.55127 65.9237 2.55127C65.6978 2.55127 65.5075 2.62687 65.3526 2.77806C65.1996 2.92926 65.1149 3.13146 65.0985 3.38467ZM67.831 5.11432V1.10853H68.3228V5.11432H67.831ZM69.0906 1.67415V1.10853H69.5825V1.67415H69.0906ZM69.0906 5.11432V2.21244H69.5825V5.11432H69.0906ZM71.14 5.11432L70.0361 2.21244H70.5552L71.1782 3.95029C71.2456 4.13792 71.3076 4.33283 71.364 4.53503C71.4078 4.38202 71.4688 4.19803 71.5471 3.98308L72.192 2.21244H72.6975L71.599 5.11432H71.14ZM75.1184 4.17981L75.6267 4.24266C75.5465 4.53959 75.3981 4.77003 75.1813 4.93397C74.9645 5.09792 74.6876 5.17989 74.3506 5.17989C73.9262 5.17989 73.5892 5.04965 73.3396 4.78915C73.0919 4.52684 72.968 4.15978 72.968 3.68797C72.968 3.19977 73.0937 2.82087 73.3451 2.55127C73.5965 2.28166 73.9225 2.14686 74.3233 2.14686C74.7113 2.14686 75.0283 2.27893 75.2742 2.54307C75.5201 2.80721 75.6431 3.17882 75.6431 3.65791C75.6431 3.68706 75.6422 3.73078 75.6403 3.78907H73.4762C73.4944 4.10786 73.5846 4.35196 73.7467 4.52137C73.9089 4.69078 74.1111 4.77549 74.3533 4.77549C74.5337 4.77549 74.6876 4.72813 74.8151 4.6334C74.9426 4.53868 75.0437 4.38748 75.1184 4.17981ZM73.5036 3.38467H75.1239C75.102 3.14057 75.0401 2.95749 74.9381 2.83544C74.7814 2.64599 74.5783 2.55127 74.3288 2.55127C74.1029 2.55127 73.9125 2.62687 73.7577 2.77806C73.6047 2.92926 73.5199 3.13146 73.5036 3.38467ZM76.2415 5.11432V2.21244H76.6841V2.65237C76.7971 2.44652 76.9009 2.31081 76.9956 2.24523C77.0922 2.17965 77.1978 2.14686 77.3126 2.14686C77.4784 2.14686 77.6469 2.19969 77.8181 2.30535L77.6487 2.76167C77.5285 2.69062 77.4082 2.6551 77.288 2.6551C77.1805 2.6551 77.084 2.68789 76.9984 2.75347C76.9128 2.81723 76.8517 2.90649 76.8153 3.02125C76.7606 3.19613 76.7333 3.3874 76.7333 3.59507V5.11432H76.2415ZM78.1132 1.67415V1.10853H78.6051V1.67415H78.1132ZM78.1132 5.11432V2.21244H78.6051V5.11432H78.1132ZM79.3565 5.11432V2.21244H79.7991V2.62504C80.0123 2.30626 80.3201 2.14686 80.7227 2.14686C80.8976 2.14686 81.0579 2.17874 81.2036 2.2425C81.3512 2.30443 81.4614 2.38641 81.5343 2.48842C81.6071 2.59043 81.6581 2.71157 81.6873 2.85184C81.7055 2.94292 81.7146 3.10231 81.7146 3.33002V5.11432H81.2228V3.34915C81.2228 3.14877 81.2036 2.99939 81.1654 2.90102C81.1271 2.80083 81.0588 2.72159 80.9604 2.6633C80.8639 2.60318 80.75 2.57313 80.6189 2.57313C80.4094 2.57313 80.2281 2.63962 80.0751 2.7726C79.9239 2.90558 79.8483 3.15787 79.8483 3.52949V5.11432H79.3565ZM82.3813 5.35477L82.8595 5.42582C82.8795 5.57337 82.9351 5.68085 83.0262 5.74825C83.1482 5.83933 83.3149 5.88487 83.5262 5.88487C83.7539 5.88487 83.9297 5.83933 84.0536 5.74825C84.1775 5.65716 84.2612 5.52965 84.305 5.3657C84.3305 5.26551 84.3423 5.05511 84.3405 4.7345C84.1255 4.98771 83.8578 5.11432 83.5371 5.11432C83.1382 5.11432 82.8294 4.97041 82.6108 4.68259C82.3922 4.39477 82.2829 4.04957 82.2829 3.64698C82.2829 3.37009 82.333 3.11506 82.4332 2.88189C82.5334 2.6469 82.6782 2.46565 82.8677 2.33814C83.059 2.21062 83.283 2.14686 83.5399 2.14686C83.8823 2.14686 84.1647 2.28531 84.3869 2.5622V2.21244H84.8405V4.72084C84.8405 5.17261 84.7941 5.49231 84.7012 5.67993C84.6101 5.86938 84.4644 6.01876 84.264 6.12806C84.0654 6.23736 83.8204 6.29201 83.5289 6.29201C83.1828 6.29201 82.9032 6.21367 82.6901 6.05701C82.477 5.90217 82.374 5.66809 82.3813 5.35477ZM82.7885 3.61146C82.7885 3.99218 82.864 4.26998 83.0152 4.44486C83.1664 4.61974 83.3559 4.70718 83.5836 4.70718C83.8095 4.70718 83.9989 4.62065 84.1519 4.44759C84.305 4.27272 84.3815 3.99947 84.3815 3.62786C84.3815 3.27264 84.3022 3.00486 84.1438 2.82451C83.9871 2.64417 83.7976 2.554 83.5754 2.554C83.3568 2.554 83.171 2.64326 83.018 2.82178C82.865 2.99848 82.7885 3.26171 82.7885 3.61146ZM88.1222 5.11432V1.58124H86.8024V1.10853H89.9776V1.58124H88.6523V5.11432H88.1222ZM89.6551 3.66338C89.6551 3.12599 89.8045 2.72797 90.1032 2.46929C90.3528 2.25434 90.657 2.14686 91.0159 2.14686C91.4148 2.14686 91.7409 2.27802 91.9941 2.54034C92.2473 2.80083 92.3739 3.16152 92.3739 3.62239C92.3739 3.99583 92.3175 4.29002 92.2045 4.50498C92.0934 4.71811 91.9304 4.88388 91.7154 5.00228C91.5023 5.12069 91.2691 5.17989 91.0159 5.17989C90.6097 5.17989 90.2809 5.04965 90.0295 4.78915C89.7799 4.52866 89.6551 4.1534 89.6551 3.66338ZM90.1606 3.66338C90.1606 4.03499 90.2417 4.3137 90.4038 4.49951C90.5659 4.6835 90.77 4.77549 91.0159 4.77549C91.26 4.77549 91.4631 4.68259 91.6252 4.49678C91.7874 4.31097 91.8684 4.02771 91.8684 3.64698C91.8684 3.28812 91.7864 3.0167 91.6225 2.83271C91.4604 2.6469 91.2582 2.554 91.0159 2.554C90.77 2.554 90.5659 2.64599 90.4038 2.82998C90.2417 3.01396 90.1606 3.29176 90.1606 3.66338ZM92.9532 5.11432V2.21244H93.3931V2.61958C93.4842 2.47749 93.6053 2.36364 93.7565 2.27802C93.9077 2.19058 94.0799 2.14686 94.273 2.14686C94.4879 2.14686 94.6637 2.19149 94.8003 2.28075C94.9388 2.37001 95.0362 2.4948 95.0927 2.6551C95.3222 2.31628 95.621 2.14686 95.989 2.14686C96.2768 2.14686 96.4981 2.22702 96.653 2.38732C96.8078 2.5458 96.8852 2.79081 96.8852 3.12235V5.11432H96.3961V3.2863C96.3961 3.08956 96.3797 2.94838 96.3469 2.86277C96.316 2.77533 96.2586 2.7052 96.1748 2.65237C96.091 2.59954 95.9926 2.57313 95.8797 2.57313C95.6756 2.57313 95.5062 2.64144 95.3714 2.77806C95.2366 2.91286 95.1692 3.12964 95.1692 3.42839V5.11432H94.6774V3.22892C94.6774 3.01032 94.6373 2.84637 94.5572 2.73707C94.477 2.62778 94.3458 2.57313 94.1637 2.57313C94.0252 2.57313 93.8968 2.60956 93.7784 2.68243C93.6618 2.75529 93.5771 2.86186 93.5243 3.00212C93.4715 3.14239 93.445 3.34459 93.445 3.60873V5.11432H92.9532ZM97.4317 3.66338C97.4317 3.12599 97.5811 2.72797 97.8798 2.46929C98.1294 2.25434 98.4336 2.14686 98.7925 2.14686C99.1914 2.14686 99.5175 2.27802 99.7707 2.54034C100.024 2.80083 100.151 3.16152 100.151 3.62239C100.151 3.99583 100.094 4.29002 99.9811 4.50498C99.87 4.71811 99.7069 4.88388 99.492 5.00228C99.2788 5.12069 99.0457 5.17989 98.7925 5.17989C98.3862 5.17989 98.0574 5.04965 97.8061 4.78915C97.5565 4.52866 97.4317 4.1534 97.4317 3.66338ZM97.9372 3.66338C97.9372 4.03499 98.0183 4.3137 98.1804 4.49951C98.3425 4.6835 98.5466 4.77549 98.7925 4.77549C99.0366 4.77549 99.2397 4.68259 99.4018 4.49678C99.5639 4.31097 99.645 4.02771 99.645 3.64698C99.645 3.28812 99.563 3.0167 99.3991 2.83271C99.237 2.6469 99.0347 2.554 98.7925 2.554C98.5466 2.554 98.3425 2.64599 98.1804 2.82998C98.0183 3.01396 97.9372 3.29176 97.9372 3.66338ZM100.724 5.11432V2.21244H101.167V2.65237C101.28 2.44652 101.384 2.31081 101.478 2.24523C101.575 2.17965 101.681 2.14686 101.795 2.14686C101.961 2.14686 102.13 2.19969 102.301 2.30535L102.132 2.76167C102.011 2.69062 101.891 2.6551 101.771 2.6551C101.663 2.6551 101.567 2.68789 101.481 2.75347C101.396 2.81723 101.335 2.90649 101.298 3.02125C101.243 3.19613 101.216 3.3874 101.216 3.59507V5.11432H100.724ZM102.588 5.11432V2.21244H103.031V2.65237C103.143 2.44652 103.247 2.31081 103.342 2.24523C103.439 2.17965 103.544 2.14686 103.659 2.14686C103.825 2.14686 103.993 2.19969 104.164 2.30535L103.995 2.76167C103.875 2.69062 103.755 2.6551 103.634 2.6551C103.527 2.6551 103.43 2.68789 103.345 2.75347C103.259 2.81723 103.198 2.90649 103.162 3.02125C103.107 3.19613 103.08 3.3874 103.08 3.59507V5.11432H102.588ZM104.274 3.66338C104.274 3.12599 104.423 2.72797 104.722 2.46929C104.971 2.25434 105.276 2.14686 105.635 2.14686C106.033 2.14686 106.36 2.27802 106.613 2.54034C106.866 2.80083 106.993 3.16152 106.993 3.62239C106.993 3.99583 106.936 4.29002 106.823 4.50498C106.712 4.71811 106.549 4.88388 106.334 5.00228C106.121 5.12069 105.888 5.17989 105.635 5.17989C105.228 5.17989 104.9 5.04965 104.648 4.78915C104.399 4.52866 104.274 4.1534 104.274 3.66338ZM104.779 3.66338C104.779 4.03499 104.86 4.3137 105.022 4.49951C105.185 4.6835 105.389 4.77549 105.635 4.77549C105.879 4.77549 106.082 4.68259 106.244 4.49678C106.406 4.31097 106.487 4.02771 106.487 3.64698C106.487 3.28812 106.405 3.0167 106.241 2.83271C106.079 2.6469 105.877 2.554 105.635 2.554C105.389 2.554 105.185 2.64599 105.022 2.82998C104.86 3.01396 104.779 3.29176 104.779 3.66338ZM108.107 5.11432L107.219 2.21244H107.728L108.189 3.88744L108.362 4.51044C108.369 4.47947 108.419 4.28 108.512 3.91203L108.974 2.21244H109.479L109.914 3.89564L110.058 4.45033L110.225 3.89017L110.722 2.21244H111.201L110.293 5.11432H109.782L109.321 3.37647L109.209 2.88189L108.621 5.11432H108.107ZM111.586 1.63863V1.06754H112.113V1.5184C112.113 1.7625 112.085 1.93829 112.029 2.04576C111.95 2.19331 111.828 2.30443 111.662 2.37912L111.542 2.18512C111.64 2.14504 111.713 2.08219 111.761 1.99658C111.81 1.90914 111.837 1.78982 111.843 1.63863H111.586ZM112.561 4.24813L113.048 4.17162C113.075 4.36653 113.151 4.51591 113.275 4.61974C113.4 4.72357 113.575 4.77549 113.799 4.77549C114.025 4.77549 114.193 4.72995 114.302 4.63887C114.411 4.54596 114.466 4.43758 114.466 4.3137C114.466 4.20258 114.418 4.11515 114.321 4.05139C114.254 4.00767 114.086 3.95211 113.818 3.88471C113.458 3.79363 113.207 3.7153 113.067 3.64972C112.928 3.58232 112.823 3.49032 112.75 3.37374C112.679 3.25533 112.643 3.12508 112.643 2.983C112.643 2.85366 112.672 2.73434 112.731 2.62504C112.791 2.51392 112.872 2.42193 112.974 2.34907C113.05 2.29259 113.154 2.24523 113.285 2.20698C113.418 2.1669 113.561 2.14686 113.712 2.14686C113.939 2.14686 114.139 2.17965 114.31 2.24523C114.483 2.31081 114.611 2.40007 114.693 2.51301C114.775 2.62413 114.831 2.77351 114.862 2.96114L114.381 3.02672C114.359 2.87734 114.296 2.76076 114.19 2.67696C114.086 2.59316 113.938 2.55127 113.747 2.55127C113.521 2.55127 113.36 2.58861 113.264 2.6633C113.167 2.73799 113.119 2.82542 113.119 2.92561C113.119 2.98937 113.139 3.04675 113.179 3.09776C113.219 3.15059 113.282 3.19431 113.367 3.22892C113.417 3.24713 113.561 3.28903 113.802 3.35461C114.15 3.44751 114.392 3.52402 114.529 3.58414C114.667 3.64243 114.776 3.72805 114.854 3.84099C114.932 3.95393 114.971 4.0942 114.971 4.26179C114.971 4.42574 114.923 4.58057 114.827 4.72631C114.732 4.87022 114.594 4.98225 114.414 5.0624C114.234 5.14073 114.03 5.17989 113.802 5.17989C113.425 5.17989 113.137 5.10156 112.938 4.9449C112.742 4.78824 112.616 4.55598 112.561 4.24813Z" fill="white"/>
<path d="M60.5654 11.0383L61.0654 10.9946C61.0891 11.195 61.1437 11.3598 61.2293 11.4892C61.3168 11.6167 61.4516 11.7205 61.6337 11.8007C61.8159 11.879 62.0208 11.9182 62.2485 11.9182C62.4507 11.9182 62.6293 11.8881 62.7841 11.828C62.9389 11.7679 63.0537 11.6859 63.1284 11.5821C63.2049 11.4764 63.2432 11.3617 63.2432 11.2378C63.2432 11.1121 63.2067 11.0028 63.1339 10.9099C63.061 10.8152 62.9408 10.7359 62.7732 10.6722C62.6657 10.6303 62.428 10.5656 62.06 10.4782C61.692 10.3889 61.4343 10.3051 61.2867 10.2268C61.0954 10.1266 60.9524 10.0027 60.8577 9.85517C60.7648 9.70579 60.7184 9.53911 60.7184 9.35513C60.7184 9.15293 60.7758 8.96439 60.8905 8.78951C61.0053 8.61281 61.1729 8.47892 61.3933 8.38784C61.6137 8.29676 61.8587 8.25122 62.1283 8.25122C62.4252 8.25122 62.6867 8.29949 62.9125 8.39604C63.1402 8.49076 63.3151 8.63103 63.4372 8.81683C63.5592 9.00264 63.6248 9.21304 63.6339 9.44803L63.1257 9.48629C63.0983 9.23308 63.0054 9.04181 62.847 8.91247C62.6903 8.78313 62.458 8.71847 62.1502 8.71847C61.8296 8.71847 61.5955 8.77767 61.4479 8.89608C61.3022 9.01266 61.2293 9.15384 61.2293 9.31961C61.2293 9.46352 61.2813 9.58192 61.3851 9.67483C61.4871 9.76773 61.7531 9.86337 62.183 9.96174C62.6147 10.0583 62.9107 10.143 63.071 10.2159C63.3042 10.3233 63.4763 10.46 63.5875 10.6257C63.6986 10.7897 63.7541 10.9791 63.7541 11.1941C63.7541 11.4072 63.6931 11.6085 63.5711 11.7979C63.449 11.9856 63.2732 12.1322 63.0437 12.2379C62.816 12.3417 62.5591 12.3936 62.2731 12.3936C61.9106 12.3936 61.6064 12.3408 61.3605 12.2351C61.1164 12.1295 60.9242 11.971 60.7839 11.7597C60.6455 11.5466 60.5726 11.3061 60.5654 11.0383ZM64.2323 10.8744C64.2323 10.337 64.3817 9.93896 64.6804 9.68029C64.93 9.46534 65.2342 9.35786 65.5931 9.35786C65.992 9.35786 66.3181 9.48902 66.5713 9.75134C66.8245 10.0118 66.9511 10.3725 66.9511 10.8334C66.9511 11.2068 66.8946 11.501 66.7817 11.716C66.6706 11.9291 66.5075 12.0949 66.2926 12.2133C66.0795 12.3317 65.8463 12.3909 65.5931 12.3909C65.1869 12.3909 64.858 12.2606 64.6067 12.0002C64.3571 11.7397 64.2323 11.3644 64.2323 10.8744ZM64.7378 10.8744C64.7378 11.246 64.8189 11.5247 64.981 11.7105C65.1431 11.8945 65.3472 11.9865 65.5931 11.9865C65.8372 11.9865 66.0403 11.8936 66.2024 11.7078C66.3645 11.522 66.4456 11.2387 66.4456 10.858C66.4456 10.4991 66.3636 10.2277 66.1997 10.0437C66.0376 9.8579 65.8354 9.765 65.5931 9.765C65.3472 9.765 65.1431 9.85699 64.981 10.041C64.8189 10.225 64.7378 10.5028 64.7378 10.8744ZM67.5195 12.3253V8.31953H68.0113V12.3253H67.5195ZM70.6782 12.3253V11.899C70.4523 12.2269 70.1454 12.3909 69.7573 12.3909C69.5861 12.3909 69.4258 12.3581 69.2764 12.2925C69.1289 12.2269 69.0187 12.145 68.9458 12.0466C68.8748 11.9464 68.8247 11.8244 68.7955 11.6805C68.7755 11.5839 68.7655 11.4309 68.7655 11.2214V9.42344H69.2573V11.0329C69.2573 11.2897 69.2673 11.4628 69.2874 11.552C69.3183 11.6814 69.3839 11.7834 69.4841 11.8581C69.5843 11.9309 69.7082 11.9674 69.8557 11.9674C70.0033 11.9674 70.1417 11.93 70.2711 11.8553C70.4004 11.7788 70.4915 11.6759 70.5443 11.5466C70.5989 11.4154 70.6263 11.226 70.6263 10.9782V9.42344H71.1181V12.3253H70.6782ZM72.9653 11.8854L73.0363 12.3198C72.8979 12.349 72.774 12.3636 72.6647 12.3636C72.4862 12.3636 72.3477 12.3353 72.2494 12.2789C72.151 12.2224 72.0818 12.1486 72.0417 12.0575C72.0016 11.9646 71.9816 11.7706 71.9816 11.4755V9.80599H71.6209V9.42344H71.9816V8.7048L72.4707 8.4097V9.42344H72.9653V9.80599H72.4707V11.5028C72.4707 11.6431 72.4789 11.7333 72.4953 11.7734C72.5135 11.8134 72.5417 11.8453 72.58 11.869C72.6201 11.8927 72.6765 11.9045 72.7494 11.9045C72.804 11.9045 72.876 11.8981 72.9653 11.8854ZM73.4516 8.88515V8.31953H73.9435V8.88515H73.4516ZM73.4516 12.3253V9.42344H73.9435V12.3253H73.4516ZM74.5118 10.8744C74.5118 10.337 74.6612 9.93896 74.96 9.68029C75.2095 9.46534 75.5137 9.35786 75.8726 9.35786C76.2715 9.35786 76.5976 9.48902 76.8508 9.75134C77.104 10.0118 77.2306 10.3725 77.2306 10.8334C77.2306 11.2068 77.1742 11.501 77.0612 11.716C76.9501 11.9291 76.7871 12.0949 76.5721 12.2133C76.359 12.3317 76.1258 12.3909 75.8726 12.3909C75.4664 12.3909 75.1376 12.2606 74.8862 12.0002C74.6366 11.7397 74.5118 11.3644 74.5118 10.8744ZM75.0173 10.8744C75.0173 11.246 75.0984 11.5247 75.2605 11.7105C75.4226 11.8945 75.6267 11.9865 75.8726 11.9865C76.1167 11.9865 76.3198 11.8936 76.4819 11.7078C76.6441 11.522 76.7251 11.2387 76.7251 10.858C76.7251 10.4991 76.6431 10.2277 76.4792 10.0437C76.3171 9.8579 76.1149 9.765 75.8726 9.765C75.6267 9.765 75.4226 9.85699 75.2605 10.041C75.0984 10.225 75.0173 10.5028 75.0173 10.8744ZM77.8099 12.3253V9.42344H78.2526V9.83604C78.4657 9.51726 78.7736 9.35786 79.1761 9.35786C79.351 9.35786 79.5113 9.38974 79.6571 9.4535C79.8046 9.51543 79.9148 9.59741 79.9877 9.69942C80.0605 9.80143 80.1116 9.92257 80.1407 10.0628C80.1589 10.1539 80.168 10.3133 80.168 10.541V12.3253H79.6762V10.5601C79.6762 10.3598 79.6571 10.2104 79.6188 10.112C79.5805 10.0118 79.5122 9.93259 79.4139 9.8743C79.3173 9.81418 79.2035 9.78413 79.0723 9.78413C78.8628 9.78413 78.6816 9.85062 78.5285 9.9836C78.3773 10.1166 78.3018 10.3689 78.3018 10.7405V12.3253H77.8099ZM80.7282 11.4591L81.2146 11.3826C81.2419 11.5775 81.3175 11.7269 81.4413 11.8307C81.567 11.9346 81.7419 11.9865 81.966 11.9865C82.1919 11.9865 82.3595 11.9409 82.4688 11.8499C82.5781 11.757 82.6327 11.6486 82.6327 11.5247C82.6327 11.4136 82.5844 11.3261 82.4879 11.2624C82.4205 11.2187 82.2529 11.1631 81.9851 11.0957C81.6244 11.0046 81.3739 10.9263 81.2337 10.8607C81.0952 10.7933 80.9896 10.7013 80.9167 10.5847C80.8457 10.4663 80.8101 10.3361 80.8101 10.194C80.8101 10.0647 80.8393 9.94534 80.8976 9.83604C80.9577 9.72492 81.0388 9.63293 81.1408 9.56006C81.2173 9.50359 81.3211 9.45623 81.4523 9.41798C81.5853 9.3779 81.7273 9.35786 81.8785 9.35786C82.1062 9.35786 82.3057 9.39065 82.4769 9.45623C82.65 9.52181 82.7775 9.61107 82.8595 9.72401C82.9415 9.83513 82.9979 9.98451 83.0289 10.1721L82.548 10.2377C82.5261 10.0883 82.4624 9.97175 82.3567 9.88796C82.2529 9.80416 82.1053 9.76227 81.9141 9.76227C81.6882 9.76227 81.527 9.79961 81.4304 9.8743C81.3339 9.94898 81.2856 10.0364 81.2856 10.1366C81.2856 10.2004 81.3056 10.2578 81.3457 10.3088C81.3858 10.3616 81.4486 10.4053 81.5343 10.4399C81.5834 10.4581 81.7283 10.5 81.9687 10.5656C82.3166 10.6585 82.5589 10.735 82.6955 10.7951C82.834 10.8534 82.9424 10.939 83.0207 11.052C83.099 11.1649 83.1382 11.3052 83.1382 11.4728C83.1382 11.6367 83.0899 11.7916 82.9934 11.9373C82.8987 12.0812 82.7611 12.1932 82.5808 12.2734C82.4004 12.3517 82.1964 12.3909 81.9687 12.3909C81.5916 12.3909 81.3038 12.3126 81.1053 12.1559C80.9085 11.9992 80.7828 11.767 80.7282 11.4591ZM86.2587 12.3253V8.79224H84.9389V8.31953H88.114V8.79224H86.7888V12.3253H86.2587ZM87.7916 10.8744C87.7916 10.337 87.941 9.93896 88.2397 9.68029C88.4893 9.46534 88.7935 9.35786 89.1524 9.35786C89.5513 9.35786 89.8774 9.48902 90.1306 9.75134C90.3838 10.0118 90.5104 10.3725 90.5104 10.8334C90.5104 11.2068 90.4539 11.501 90.341 11.716C90.2299 11.9291 90.0668 12.0949 89.8519 12.2133C89.6387 12.3317 89.4056 12.3909 89.1524 12.3909C88.7461 12.3909 88.4173 12.2606 88.1659 12.0002C87.9164 11.7397 87.7916 11.3644 87.7916 10.8744ZM88.2971 10.8744C88.2971 11.246 88.3782 11.5247 88.5403 11.7105C88.7024 11.8945 88.9064 11.9865 89.1524 11.9865C89.3965 11.9865 89.5996 11.8936 89.7617 11.7078C89.9238 11.522 90.0049 11.2387 90.0049 10.858C90.0049 10.4991 89.9229 10.2277 89.759 10.0437C89.5968 9.8579 89.3946 9.765 89.1524 9.765C88.9064 9.765 88.7024 9.85699 88.5403 10.041C88.3782 10.225 88.2971 10.5028 88.2971 10.8744ZM92.9723 12.3253V11.9592C92.7883 12.247 92.5178 12.3909 92.1608 12.3909C91.9294 12.3909 91.7163 12.3271 91.5214 12.1996C91.3283 12.0721 91.178 11.8945 91.0705 11.6668C90.9649 11.4373 90.9121 11.174 90.9121 10.8771C90.9121 10.5875 90.9603 10.3252 91.0569 10.0902C91.1534 9.85335 91.2982 9.67209 91.4913 9.5464C91.6844 9.42071 91.9003 9.35786 92.1389 9.35786C92.3138 9.35786 92.4696 9.39521 92.6062 9.46989C92.7428 9.54276 92.8539 9.63839 92.9395 9.7568V8.31953H93.4287V12.3253H92.9723ZM91.4176 10.8771C91.4176 11.2487 91.4959 11.5265 91.6526 11.7105C91.8092 11.8945 91.9941 11.9865 92.2072 11.9865C92.4222 11.9865 92.6044 11.899 92.7537 11.7242C92.9049 11.5475 92.9805 11.2788 92.9805 10.9181C92.9805 10.521 92.904 10.2295 92.751 10.0437C92.598 9.8579 92.4094 9.765 92.1854 9.765C91.9668 9.765 91.7837 9.85426 91.6362 10.0328C91.4904 10.2113 91.4176 10.4927 91.4176 10.8771ZM96.0983 11.9674C95.9161 12.1222 95.7403 12.2315 95.5709 12.2953C95.4033 12.359 95.223 12.3909 95.0299 12.3909C94.7111 12.3909 94.4661 12.3135 94.2948 12.1586C94.1236 12.002 94.038 11.8025 94.038 11.5602C94.038 11.4181 94.0699 11.2888 94.1336 11.1722C94.1992 11.0538 94.2839 10.9591 94.3877 10.888C94.4934 10.817 94.6118 10.7633 94.743 10.7268C94.8395 10.7013 94.9852 10.6767 95.1802 10.653C95.5773 10.6057 95.8697 10.5492 96.0573 10.4836C96.0591 10.4162 96.06 10.3734 96.06 10.3552C96.06 10.1548 96.0136 10.0137 95.9207 9.93168C95.795 9.82056 95.6082 9.765 95.3605 9.765C95.1292 9.765 94.9579 9.80599 94.8468 9.88796C94.7375 9.96811 94.6564 10.1111 94.6036 10.317L94.1227 10.2514C94.1664 10.0455 94.2384 9.87976 94.3386 9.75407C94.4388 9.62655 94.5836 9.5291 94.773 9.4617C94.9625 9.39247 95.182 9.35786 95.4315 9.35786C95.6793 9.35786 95.8806 9.38701 96.0354 9.4453C96.1903 9.50359 96.3041 9.57737 96.377 9.66663C96.4498 9.75407 96.5008 9.86519 96.53 9.99999C96.5464 10.0838 96.5546 10.235 96.5546 10.4536V11.1094C96.5546 11.5666 96.5646 11.8562 96.5846 11.9783C96.6065 12.0985 96.6484 12.2142 96.7103 12.3253H96.1966C96.1456 12.2233 96.1128 12.104 96.0983 11.9674ZM96.0573 10.8689C95.8788 10.9418 95.611 11.0037 95.2539 11.0547C95.0517 11.0839 94.9087 11.1167 94.8249 11.1531C94.7411 11.1895 94.6765 11.2433 94.6309 11.3143C94.5854 11.3835 94.5626 11.4609 94.5626 11.5466C94.5626 11.6777 94.6118 11.787 94.7102 11.8745C94.8104 11.9619 94.9561 12.0056 95.1474 12.0056C95.3368 12.0056 95.5053 11.9646 95.6529 11.8827C95.8004 11.7989 95.9088 11.685 95.978 11.5411C96.0309 11.43 96.0573 11.266 96.0573 11.0493V10.8689ZM97.2978 13.4429L97.2432 12.9811C97.3506 13.0103 97.4445 13.0248 97.5246 13.0248C97.6339 13.0248 97.7213 13.0066 97.7869 12.9702C97.8525 12.9337 97.9062 12.8827 97.9481 12.8172C97.9791 12.768 98.0292 12.6459 98.0984 12.451C98.1075 12.4237 98.1221 12.3836 98.1421 12.3308L97.041 9.42344H97.5711L98.1749 11.1039C98.2533 11.317 98.3234 11.5411 98.3853 11.7761C98.4418 11.5502 98.5092 11.3298 98.5875 11.1148L99.2078 9.42344H99.6996L98.5957 12.3745C98.4773 12.6933 98.3853 12.9128 98.3198 13.033C98.2323 13.1951 98.1321 13.3136 98.0192 13.3882C97.9062 13.4647 97.7714 13.503 97.6148 13.503C97.5201 13.503 97.4144 13.483 97.2978 13.4429Z" fill="white"/>
<path d="M55.3737 1.79777V12.9567" stroke="white" stroke-width="0.205738" stroke-linecap="round" stroke-linejoin="round"/>
</svg>
