<svg width="28" height="26" viewBox="0 0 28 26" fill="none" xmlns="http://www.w3.org/2000/svg">
<path d="M10.6551 20.4474C10.2358 20.4474 9.87886 20.3001 9.58435 20.0056C9.28983 19.7111 9.14257 19.3545 9.14257 18.9358V8.7347C9.14257 8.5525 9.17159 8.3809 9.22962 8.21992C9.28764 8.05893 9.375 7.91074 9.49169 7.77533L10.9499 6.02508C11.0853 5.84225 11.2547 5.70436 11.4581 5.61138C11.6616 5.51841 11.8796 5.47192 12.1124 5.47192H21.1126C21.3447 5.47192 21.5656 5.51841 21.7753 5.61138C21.9849 5.70436 22.1575 5.84194 22.2929 6.02414L23.7689 7.81184C23.8856 7.94724 23.9729 8.09855 24.031 8.26578C24.089 8.43238 24.118 8.60709 24.118 8.78992V18.9358C24.118 19.3538 23.9707 19.7104 23.6762 20.0056C23.3817 20.3001 23.0251 20.4474 22.6064 20.4474H10.6551ZM10.4342 8.10011H22.8077L21.5628 6.60444C21.5023 6.54454 21.433 6.49681 21.355 6.46124C21.277 6.42567 21.1959 6.40789 21.1117 6.40789H12.1302C12.0466 6.40789 11.9654 6.42598 11.8868 6.46217C11.8082 6.49837 11.7396 6.54641 11.6809 6.60631L10.4342 8.10011ZM19.4372 9.03608H13.8224V15.3894L16.6303 13.9855L19.4382 15.3894L19.4372 9.03608Z" fill="#FF6501"/>
<path d="M26.4457 18.6119C27.2267 18.0371 27.3934 16.9402 26.8187 16.1593C26.2439 15.3783 25.147 15.2116 24.366 15.7863L19.1141 19.6561H13.8227C13.4366 19.6561 13.1207 19.3402 13.1207 18.9541C13.1207 18.568 13.4366 18.2521 13.8227 18.2521H17.3328C18.1094 18.2521 18.7368 17.6247 18.7368 16.8481C18.7368 16.0715 18.1094 15.4441 17.3328 15.4441H10.3873C9.1105 15.4441 7.87321 15.8785 6.87723 16.6726L4.90722 18.2521H3.2926C2.516 18.2521 1.88858 18.8795 1.88858 19.6561V22.4642C1.88858 23.2408 2.516 23.8682 3.2926 23.8682H17.3547C18.6271 23.8682 19.8688 23.4602 20.8955 22.7055L26.4501 18.6119H26.4457Z" fill="#EEBE6A"/>
<path d="M13.8227 15.4437V8.42395H19.4384V15.4437L16.6306 13.8837L13.8227 15.4437Z" fill="#FBAB1E"/>
<rect x="0.484543" y="16.8481" width="2.80789" height="8.42368" fill="#E58E0B"/>
</svg>
