<svg width="27" height="27" viewBox="0 0 27 27" fill="none" xmlns="http://www.w3.org/2000/svg">
<path d="M18.6795 22.0746C17.4599 22.0746 16.4819 23.0526 16.4819 24.2722C16.4819 24.8551 16.7135 25.414 17.1256 25.8262C17.5377 26.2383 18.0967 26.4698 18.6795 26.4698C19.2624 26.4698 19.8213 26.2383 20.2335 25.8262C20.6456 25.414 20.8771 24.8551 20.8771 24.2722C20.8771 23.6894 20.6456 23.1304 20.2335 22.7183C19.8213 22.3062 19.2624 22.0746 18.6795 22.0746ZM1.09879 4.4939V6.69149H3.29638L7.25205 15.0314L5.75768 17.7234C5.59286 18.0311 5.49397 18.3937 5.49397 18.7783C5.49397 19.3611 5.7255 19.9201 6.13763 20.3322C6.54976 20.7443 7.10873 20.9758 7.69157 20.9758H20.8771V18.7783H8.15306C8.08021 18.7783 8.01034 18.7493 7.95882 18.6978C7.9073 18.6463 7.87836 18.5764 7.87836 18.5036C7.87836 18.4486 7.88935 18.4047 7.91133 18.3717L8.90024 16.5807H17.0863C17.9104 16.5807 18.6356 16.1192 19.0092 15.4489L22.9429 8.33969C23.0198 8.16388 23.0747 7.97708 23.0747 7.79029C23.0747 7.49887 22.959 7.21938 22.7529 7.01332C22.5468 6.80726 22.2673 6.69149 21.9759 6.69149H5.72472L4.69185 4.4939M7.69157 22.0746C6.4719 22.0746 5.49397 23.0526 5.49397 24.2722C5.49397 24.8551 5.7255 25.414 6.13763 25.8262C6.54976 26.2383 7.10873 26.4698 7.69157 26.4698C8.2744 26.4698 8.83337 26.2383 9.2455 25.8262C9.65763 25.414 9.88916 24.8551 9.88916 24.2722C9.88916 23.6894 9.65763 23.1304 9.2455 22.7183C8.83337 22.3062 8.2744 22.0746 7.69157 22.0746Z" fill="#FF6501"/>
<rect x="5.49399" y="3.39502" width="7.69119" height="3.29622" fill="#FBAB1E"/>
<rect x="14.2843" y="3.39502" width="7.69119" height="3.29622" fill="#FBAB1E"/>
<rect x="9.88901" y="0.0987549" width="7.69119" height="3.29622" fill="#FBAB1E"/>
</svg>
