<svg width="74" height="49" viewBox="0 0 74 49" fill="none" xmlns="http://www.w3.org/2000/svg">
<g clip-path="url(#clip0_93_1067)">
<path d="M0 48.5509H73.9931" stroke="black" stroke-width="0.255916" stroke-miterlimit="10"/>
<path d="M41.0034 4.89471H13.5052C12.2303 4.89471 11.1968 5.9282 11.1968 7.20308V46.2426C11.1968 47.5175 12.2303 48.551 13.5052 48.551H41.0034C42.2783 48.551 43.3118 47.5175 43.3118 46.2426V7.20308C43.3118 5.9282 42.2783 4.89471 41.0034 4.89471Z" fill="#0E3F96"/>
<path d="M41.4052 7.10219H13.3046V46.4432H41.4052V7.10219Z" fill="#EBF7F6"/>
<path d="M33.6141 3.69034H21.1827V8.70834H33.6141V3.69034Z" fill="#EA9C34"/>
<path d="M33.6141 3.69034H21.1827V7.89504H33.6141V3.69034Z" fill="#FAAF3B"/>
<path d="M27.6241 0.742706C26.0538 0.742706 24.7803 2.01563 24.7803 3.58645C24.7803 5.15726 26.0533 6.43019 27.6241 6.43019C29.1949 6.43019 30.4678 5.15726 30.4678 3.58645C30.4678 2.01563 29.1949 0.742706 27.6241 0.742706ZM27.6256 4.6961C26.8323 4.6961 26.1894 4.05324 26.1894 3.2599C26.1894 2.46656 26.8323 1.8237 27.6256 1.8237C28.419 1.8237 29.0618 2.46656 29.0618 3.2599C29.0618 4.05324 28.419 4.6961 27.6256 4.6961Z" fill="#FAAF3B"/>
<path d="M39.7924 9.68188H15.1881V15.6975H39.7924V9.68188Z" fill="white"/>
<path d="M39.7008 16.239H15.0965V22.2545H39.7008V16.239Z" fill="white"/>
<path d="M39.6568 22.7965H15.0525V28.8121H39.6568V22.7965Z" fill="white"/>
<path d="M39.6568 29.3541H15.0525V35.3697H39.6568V29.3541Z" fill="white"/>
<path d="M39.6568 36.0141H15.0525V42.0297H39.6568V36.0141Z" fill="white"/>
<path d="M20.3909 10.3319H15.9472V14.7756H20.3909V10.3319Z" stroke="#0071BB" stroke-width="0.204733" stroke-miterlimit="10"/>
<path d="M20.3909 17.0251H15.9472V21.4688H20.3909V17.0251Z" stroke="#0071BB" stroke-width="0.204733" stroke-miterlimit="10"/>
<path d="M20.3909 23.5827H15.9472V28.0264H20.3909V23.5827Z" stroke="#0071BB" stroke-width="0.204733" stroke-miterlimit="10"/>
<path d="M20.3909 30.1398H15.9472V34.5835H20.3909V30.1398Z" stroke="#0071BB" stroke-width="0.204733" stroke-miterlimit="10"/>
<path d="M20.3909 36.7997H15.9472V41.2435H20.3909V36.7997Z" stroke="#0071BB" stroke-width="0.204733" stroke-miterlimit="10"/>
<path d="M21.8194 10.5284L21.347 10.1358L18.3835 13.7028L17.2421 12.6904L16.8347 13.15L18.4669 14.5637L18.4812 14.5458L21.8194 10.5284Z" fill="#0071BB"/>
<path d="M21.5845 17.0676L21.1121 16.675L18.1486 20.242L17.0072 19.2301L16.5998 19.6892L18.232 21.1029L18.2463 21.0855L21.5845 17.0676Z" fill="#0071BB"/>
<path d="M21.5845 23.6795L21.1121 23.2869L18.1486 26.8539L17.0072 25.8415L16.5998 26.3011L18.232 27.7148L18.2463 27.6968L21.5845 23.6795Z" fill="#0071BB"/>
<path d="M21.5845 30.1986L21.1121 29.8061L18.1486 33.373L17.0072 32.3611L16.5998 32.8202L18.232 34.2339L18.2463 34.2165L21.5845 30.1986Z" fill="#0071BB"/>
<path d="M21.5845 36.919L21.1121 36.5265L18.1486 40.0934L17.0072 39.081L16.5998 39.5406L18.232 40.9543L18.2463 40.9364L21.5845 36.919Z" fill="#0071BB"/>
<path d="M38.3833 11.4159H22.342V12.1023H38.3833V11.4159Z" fill="#EBF7F6"/>
<path d="M38.3833 12.5538H22.342V13.2401H38.3833V12.5538Z" fill="#EBF7F6"/>
<path d="M38.3833 13.6921H22.342V14.3784H38.3833V13.6921Z" fill="#EBF7F6"/>
<path d="M38.4888 17.7657H22.4474V18.4521H38.4888V17.7657Z" fill="#EBF7F6"/>
<path d="M38.4888 18.9035H22.4474V19.5899H38.4888V18.9035Z" fill="#EBF7F6"/>
<path d="M38.4888 20.0419H22.4474V20.7282H38.4888V20.0419Z" fill="#EBF7F6"/>
<path d="M38.5937 24.1155H22.5524V24.8019H38.5937V24.1155Z" fill="#EBF7F6"/>
<path d="M38.5937 25.2533H22.5524V25.9397H38.5937V25.2533Z" fill="#EBF7F6"/>
<path d="M38.5937 26.3916H22.5524V27.078H38.5937V26.3916Z" fill="#EBF7F6"/>
<path d="M38.6991 30.4653H22.6578V31.1517H38.6991V30.4653Z" fill="#EBF7F6"/>
<path d="M38.6991 31.6031H22.6578V32.2895H38.6991V31.6031Z" fill="#EBF7F6"/>
<path d="M38.6991 32.7414H22.6578V33.4278H38.6991V32.7414Z" fill="#EBF7F6"/>
<path d="M38.8046 36.8146H22.7632V37.501H38.8046V36.8146Z" fill="#EBF7F6"/>
<path d="M38.8046 37.9529H22.7632V38.6393H38.8046V37.9529Z" fill="#EBF7F6"/>
<path d="M38.8046 39.0912H22.7632V39.7776H38.8046V39.0912Z" fill="#EBF7F6"/>
<path d="M41.8597 32.2701H32.831V39.7187H41.8597V32.2701Z" fill="#EEBE6A"/>
<path d="M42.0967 31.2146H32.5909V32.549H42.0967V31.2146Z" fill="#EEBE6A"/>
<g style="mix-blend-mode:multiply">
<path d="M32.831 33.0337L38.7733 39.7187H41.8592V32.549H32.831V33.0337Z" fill="#E6E7E8"/>
</g>
<path d="M34.561 31.2146H33.5429V33.0337H34.561V31.2146Z" fill="#CF7F3D"/>
<path d="M41.1831 31.2146H40.1645V33.0337H41.1831V31.2146Z" fill="#CF7F3D"/>
<path d="M39.3825 34.6977H35.3073V37.0966H39.3825V34.6977Z" fill="#F1F2F2"/>
<path d="M35.5038 35.2668H39.145" stroke="#ED7425" stroke-width="0.0383874" stroke-miterlimit="10"/>
<path d="M35.5038 35.7413H39.145" stroke="#ED7425" stroke-width="0.0383874" stroke-miterlimit="10"/>
<path d="M35.5242 36.2158H39.1659" stroke="#ED7425" stroke-width="0.0383874" stroke-miterlimit="10"/>
<path d="M32.1835 32.2701H23.1548V39.7187H32.1835V32.2701Z" fill="#EEBE6A"/>
<path d="M32.42 31.2146H22.9142V32.549H32.42V31.2146Z" fill="#EEBE6A"/>
<g style="mix-blend-mode:multiply">
<path d="M23.1548 33.0337L29.0972 39.7187H32.183V32.549H23.1548V33.0337Z" fill="#E6E7E8"/>
</g>
<path d="M24.8848 31.2146H23.8667V33.0337H24.8848V31.2146Z" fill="#CF7F3D"/>
<path d="M31.5069 31.2146H30.4883V33.0337H31.5069V31.2146Z" fill="#CF7F3D"/>
<path d="M29.7062 34.6977H25.631V37.0966H29.7062V34.6977Z" fill="#F1F2F2"/>
<path d="M25.8276 35.2668H29.4688" stroke="#ED7425" stroke-width="0.0383874" stroke-miterlimit="10"/>
<path d="M25.8276 35.7413H29.4688" stroke="#ED7425" stroke-width="0.0383874" stroke-miterlimit="10"/>
<path d="M25.8481 36.2158H29.4892" stroke="#ED7425" stroke-width="0.0383874" stroke-miterlimit="10"/>
<path d="M51.6915 32.2772H42.6628V39.7259H51.6915V32.2772Z" fill="#EEBE6A"/>
<path d="M51.9285 31.2213H42.4227V32.5556H51.9285V31.2213Z" fill="#EEBE6A"/>
<g style="mix-blend-mode:multiply">
<path d="M42.6628 33.0404L48.6052 39.7254H51.6915V32.5557H42.6628V33.0404Z" fill="#E6E7E8"/>
</g>
<path d="M44.3933 31.2213H43.3752V33.0403H44.3933V31.2213Z" fill="#CF7F3D"/>
<path d="M51.0149 31.2213H49.9963V33.0403H51.0149V31.2213Z" fill="#CF7F3D"/>
<path d="M49.2148 34.7043H45.1396V37.1033H49.2148V34.7043Z" fill="#F1F2F2"/>
<path d="M45.3355 35.274H48.9772" stroke="#ED7425" stroke-width="0.0383874" stroke-miterlimit="10"/>
<path d="M45.3355 35.7484H48.9772" stroke="#ED7425" stroke-width="0.0383874" stroke-miterlimit="10"/>
<path d="M45.3565 36.2229H48.9977" stroke="#ED7425" stroke-width="0.0383874" stroke-miterlimit="10"/>
<path d="M41.8879 40.9384H32.8591V48.3871H41.8879V40.9384Z" fill="#EEBE6A"/>
<path d="M42.1248 39.8825H32.6191V41.2169H42.1248V39.8825Z" fill="#EEBE6A"/>
<g style="mix-blend-mode:multiply">
<path d="M32.8591 41.7015L38.8015 48.3866H41.8879V41.2168H32.8591V41.7015Z" fill="#E6E7E8"/>
</g>
<path d="M34.5896 39.8825H33.5716V41.7016H34.5896V39.8825Z" fill="#CF7F3D"/>
<path d="M41.2112 39.8825H40.1927V41.7016H41.2112V39.8825Z" fill="#CF7F3D"/>
<path d="M39.4111 43.3655H35.3359V45.7645H39.4111V43.3655Z" fill="#F1F2F2"/>
<path d="M35.5324 43.9352H39.1736" stroke="#ED7425" stroke-width="0.0383874" stroke-miterlimit="10"/>
<path d="M35.5324 44.4097H39.1736" stroke="#ED7425" stroke-width="0.0383874" stroke-miterlimit="10"/>
<path d="M35.5529 44.8842H39.1941" stroke="#ED7425" stroke-width="0.0383874" stroke-miterlimit="10"/>
<path d="M32.2117 40.9384H23.183V48.3871H32.2117V40.9384Z" fill="#EEBE6A"/>
<path d="M32.4487 39.8825H22.9429V41.2169H32.4487V39.8825Z" fill="#EEBE6A"/>
<g style="mix-blend-mode:multiply">
<path d="M23.183 41.7015L29.1253 48.3866H32.2117V41.2168H23.183V41.7015Z" fill="#E6E7E8"/>
</g>
<path d="M24.9134 39.8825H23.8954V41.7016H24.9134V39.8825Z" fill="#CF7F3D"/>
<path d="M31.535 39.8825H30.5164V41.7016H31.535V39.8825Z" fill="#CF7F3D"/>
<path d="M29.7349 43.3655H25.6597V45.7645H29.7349V43.3655Z" fill="#F1F2F2"/>
<path d="M25.8557 43.9352H29.4974" stroke="#ED7425" stroke-width="0.0383874" stroke-miterlimit="10"/>
<path d="M25.8557 44.4097H29.4974" stroke="#ED7425" stroke-width="0.0383874" stroke-miterlimit="10"/>
<path d="M25.8767 44.8842H29.5179" stroke="#ED7425" stroke-width="0.0383874" stroke-miterlimit="10"/>
<path d="M51.7202 40.9451H42.6914V48.3938H51.7202V40.9451Z" fill="#EEBE6A"/>
<path d="M51.9566 39.8897H42.4509V41.224H51.9566V39.8897Z" fill="#EEBE6A"/>
<g style="mix-blend-mode:multiply">
<path d="M42.6914 41.7087L48.6338 48.3938H51.7196V41.224H42.6914V41.7087Z" fill="#E6E7E8"/>
</g>
<path d="M44.4214 39.8897H43.4034V41.7087H44.4214V39.8897Z" fill="#CF7F3D"/>
<path d="M51.0435 39.8897H50.0249V41.7087H51.0435V39.8897Z" fill="#CF7F3D"/>
<path d="M49.2429 43.3727H45.1677V45.7716H49.2429V43.3727Z" fill="#F1F2F2"/>
<path d="M45.3642 43.9424H49.0054" stroke="#ED7425" stroke-width="0.0383874" stroke-miterlimit="10"/>
<path d="M45.3642 44.4168H49.0054" stroke="#ED7425" stroke-width="0.0383874" stroke-miterlimit="10"/>
<path d="M45.3847 44.8913H49.0259" stroke="#ED7425" stroke-width="0.0383874" stroke-miterlimit="10"/>
<path d="M39.5877 23.7342H30.559V31.1829H39.5877V23.7342Z" fill="#EEBE6A"/>
<path d="M39.8247 22.6783H30.3189V24.0126H39.8247V22.6783Z" fill="#EEBE6A"/>
<g style="mix-blend-mode:multiply">
<path d="M30.559 24.4973L36.5013 31.1824H39.5877V24.0126H30.559V24.4973Z" fill="#E6E7E8"/>
</g>
<path d="M32.2895 22.6783H31.2714V24.4973H32.2895V22.6783Z" fill="#CF7F3D"/>
<path d="M38.9111 22.6783H37.8925V24.4973H38.9111V22.6783Z" fill="#CF7F3D"/>
<path d="M37.1109 26.1613H33.0357V28.5603H37.1109V26.1613Z" fill="#F1F2F2"/>
<path d="M33.2323 26.731H36.8734" stroke="#ED7425" stroke-width="0.0383874" stroke-miterlimit="10"/>
<path d="M33.2323 27.2055H36.8734" stroke="#ED7425" stroke-width="0.0383874" stroke-miterlimit="10"/>
<path d="M33.2527 27.6799H36.8939" stroke="#ED7425" stroke-width="0.0383874" stroke-miterlimit="10"/>
<path d="M49.4333 23.7342H40.4046V31.1829H49.4333V23.7342Z" fill="#EEBE6A"/>
<path d="M49.6703 22.6783H40.1645V24.0126H49.6703V22.6783Z" fill="#EEBE6A"/>
<g style="mix-blend-mode:multiply">
<path d="M40.4046 24.4973L46.3469 31.1824H49.4328V24.0126H40.4046V24.4973Z" fill="#E6E7E8"/>
</g>
<path d="M42.1346 22.6783H41.1165V24.4973H42.1346V22.6783Z" fill="#CF7F3D"/>
<path d="M48.7566 22.6783H47.7381V24.4973H48.7566V22.6783Z" fill="#CF7F3D"/>
<path d="M46.956 26.1613H42.8808V28.5603H46.956V26.1613Z" fill="#F1F2F2"/>
<path d="M43.0773 26.731H46.7185" stroke="#ED7425" stroke-width="0.0383874" stroke-miterlimit="10"/>
<path d="M43.0773 27.2055H46.7185" stroke="#ED7425" stroke-width="0.0383874" stroke-miterlimit="10"/>
<path d="M43.0978 27.6799H46.7395" stroke="#ED7425" stroke-width="0.0383874" stroke-miterlimit="10"/>
<path d="M60.2544 47.5344C60.0241 47.5616 58.873 47.494 59.0762 47.8999C59.2794 48.3063 60.4167 48.8749 61.5136 48.7122C62.6104 48.5499 62.7256 48.4547 63.047 48.4547C63.3684 48.4547 63.8833 48.36 63.8833 48.36C63.8833 48.36 63.8562 46.9515 63.6397 46.8706L62.1231 47.0062C62.1231 47.0062 60.4848 47.5073 60.2544 47.5344Z" fill="#C0272D"/>
<path d="M70.0044 46.7078C70.0044 46.7078 68.9008 48.0627 68.2713 48.2249C67.6417 48.3872 67.1135 48.6948 67.7026 48.9169C68.2918 49.139 71.5516 48.0232 71.6637 47.9818C71.8127 47.927 72.2528 47.6563 72.2528 47.6563L71.3592 46.3091L70.0049 46.7078H70.0044Z" fill="#C0272D"/>
<path d="M65.3988 32.0136C65.3988 32.0136 61.514 38.5021 61.514 38.5835C61.514 38.6649 61.8795 46.2615 62.0013 46.2615H63.738C63.738 46.2615 65.2919 41.763 64.52 39.4418L66.4292 37.8116L65.3988 32.0136Z" fill="#DD4C1F"/>
<path d="M65.2243 32.0228C65.2243 32.0228 65.7387 39.0303 65.9419 39.2745C66.1451 39.5181 69.7607 46.3163 69.7607 46.3163L71.1611 45.8203C71.1611 45.8203 69.8825 40.2905 69.4357 39.275C68.9889 38.2595 70.1676 31.7705 70.1676 31.7705L65.2243 32.0239V32.0228Z" fill="#F05A24"/>
<path d="M65.4183 33.2871L69.9496 33.0455L70.0279 32.5756L65.298 32.7962L65.3211 33.2871H65.4183Z" fill="#E24C1E"/>
<path d="M64.7678 33.069L65.3211 33.287L65.2919 32.916L65.298 32.7962L64.9863 32.7036L64.7678 33.069Z" fill="#C63D18"/>
<path d="M63.7887 17.9464C63.7887 17.9464 63.7073 18.5422 63.7887 18.8268C63.87 19.1113 63.3418 19.4363 63.4365 19.5853C63.5312 19.7342 64.019 19.6938 64.019 19.6938C64.019 19.6938 63.7887 20.7502 64.019 21.0481C64.2493 21.346 65.1972 21.3731 65.3052 21.3189C65.4137 21.2646 65.3866 22.4024 65.3866 22.4024C65.7454 22.3154 66.1037 22.2289 66.4625 22.1419C66.7005 22.0846 66.938 22.0267 67.176 21.9694C67.437 21.9059 67.6985 21.843 67.9596 21.7795L67.6346 20.696C67.6346 20.696 68.0814 19.8699 68.1085 19.2198C68.1357 18.5698 67.8106 17.7575 67.8106 17.7575C66.918 17.5359 64.1475 16.8925 63.8025 17.625C63.7646 17.7058 63.7528 17.8103 63.7887 17.9469V17.9464Z" fill="#F4A67A"/>
<path d="M64.8635 18.4403C65.1655 18.6788 65.3886 19.0289 65.428 19.4118C65.4347 19.4778 65.4362 19.5444 65.4378 19.6104C65.4378 19.6278 65.4393 19.6472 65.4516 19.66C65.4608 19.6698 65.4751 19.6728 65.4884 19.6754C65.6358 19.703 65.8129 19.6795 65.8943 19.5536C65.9199 19.5136 65.9337 19.4671 65.9481 19.422C65.9941 19.2767 66.053 19.1334 66.1477 19.0141C66.2424 18.8948 66.3765 18.8017 66.5275 18.7812C66.5116 18.685 66.4113 18.6307 66.3222 18.5913C66.0069 18.4511 65.6911 18.3134 65.3738 18.1783C64.9761 18.0089 64.5625 17.8394 64.1254 17.819C64.0476 17.8154 63.6371 17.8082 63.7907 17.97C63.8884 18.0728 64.1561 18.0836 64.2856 18.1291C64.4929 18.2023 64.6905 18.3042 64.863 18.4408L64.8635 18.4403Z" fill="#E59973"/>
<path d="M64.9996 18.3026C65.1384 18.382 65.2791 18.4633 65.3902 18.5775C65.6497 18.8436 65.7085 19.2408 65.7546 19.6093C65.8385 19.6052 65.9225 19.6011 66.0064 19.5971C66.1175 19.4399 66.0397 19.2137 66.1154 19.0371C66.2025 18.8344 66.4906 18.7679 66.679 18.8825C66.8673 18.9977 66.9461 19.248 66.8965 19.463C66.8351 19.7291 66.6073 19.9804 66.6938 20.2394C66.7527 20.416 66.9369 20.5143 67.1099 20.5818C67.3525 20.6765 67.6381 20.741 67.8628 20.6095C68.0369 20.5076 68.1152 20.3479 68.1715 20.223C68.4146 19.6866 68.2145 19.097 68.1095 18.7884C68.0323 18.5601 67.9898 18.4352 67.8915 18.2903C67.7743 18.1179 67.4472 17.7263 66.2004 17.519C65.359 17.3793 64.1838 17.3373 64.1423 17.5789C64.0865 17.9039 64.7908 18.1813 64.9996 18.3011V18.3026Z" fill="#42210B"/>
<path d="M68.2421 18.5406L68.2329 18.5606C68.1925 18.6461 68.151 18.7229 68.1106 18.7894L64.5513 17.8563L64.0773 17.7319L63.6469 17.6193C63.6469 17.4765 63.6776 17.3296 63.7344 17.1848C63.7359 17.1812 63.737 17.1781 63.7385 17.1746H63.739C63.7477 17.1531 63.7569 17.1316 63.7666 17.1101C63.7794 17.0814 63.7933 17.0533 63.8086 17.0251C64.2135 16.2568 65.3185 15.5935 66.3622 15.8238C68.7667 16.3556 68.5943 17.7683 68.2421 18.5406Z" fill="#F6921E"/>
<path d="M64.7258 17.8169C64.6833 17.8297 64.6235 17.843 64.5513 17.8563C64.2872 17.9065 63.8665 17.9566 63.5962 17.9766C62.6155 18.0498 61.6732 17.7376 61.686 17.5804C61.6876 17.562 61.7019 17.5456 61.8396 17.5118C61.9855 17.4765 62.27 17.4223 62.8244 17.3266C63.2 17.2621 63.5148 17.2104 63.7385 17.1745H63.739C63.9243 17.3501 64.3107 17.5221 64.5707 17.6966C64.6306 17.7365 64.6833 17.7765 64.7258 17.8169Z" fill="#F6921E"/>
<path d="M65.4547 22.4961L65.0278 25.2385L64.8108 25.3127L64.0461 25.5732L63.2405 25.8475L62.2045 23.9225L64.2769 23.013L65.4547 22.4961Z" fill="#FAAF3B"/>
<path d="M62.0418 24.0024L55.1151 26.4167C55.1151 26.4167 52.8605 26.9884 52.8605 27.251C52.8605 27.5136 54.6074 27.0381 54.7292 27.1236C54.851 27.209 54.567 27.3017 55.2779 27.728C55.9888 28.1544 56.5135 27.1727 56.5135 27.1727L63.175 25.7273L62.204 23.9231L62.0418 24.0024Z" fill="#F4A67A"/>
<path d="M65.4547 22.4961C65.4234 22.6184 65.339 22.7259 65.2673 22.8334C65.014 23.2147 64.9009 23.6733 64.8538 24.1283C64.8133 24.5214 64.82 24.9175 64.8113 25.3127L64.0461 25.5732C64.0635 24.8203 64.1817 24.0904 64.2386 23.338C64.2488 23.2055 64.2524 23.1036 64.2769 23.013L65.4547 22.4961Z" fill="#ED9A2E"/>
<path d="M70.4082 32.5183C70.4082 32.5183 64.886 33.3853 64.9863 32.7036C64.9956 32.6437 65.0882 31.4644 65.1235 30.3758C65.1383 29.9064 65.143 29.4539 65.1256 29.1151C65.125 29.11 65.125 29.1049 65.1245 29.0998C65.0636 27.9829 64.3005 26.6532 64.4223 24.7645C64.5441 22.8754 65.3871 22.4014 65.3871 22.4014L67.9601 21.7785C69.7136 22.3809 70.4082 32.5183 70.4082 32.5183Z" fill="#F6921E"/>
<path d="M67.9954 28.4727C67.9273 28.4646 67.8587 28.4569 67.7906 28.4487C67.5838 28.8157 67.0925 29.564 66.1584 30.0343C65.7745 30.2278 65.4127 30.3256 65.123 30.3762C65.1378 29.9069 65.1424 29.4544 65.125 29.1156C66.2602 28.7614 67.2921 27.9594 67.7067 26.8472C67.8433 26.4812 67.9104 26.0932 68.0256 25.7196C68.1243 25.3977 68.2595 25.0829 68.3009 24.7481C68.3823 24.0961 68.0798 23.553 67.6268 23.1169C67.7957 23.1369 68.1192 23.1993 68.3982 23.4435C68.7273 23.7311 68.8112 24.1119 68.8568 24.3182C69.0267 25.087 68.7355 26.6261 67.9954 28.4727Z" fill="#E07E1B"/>
<path d="M66.0638 23.7153C65.7505 24.8531 65.4373 25.9909 65.1241 27.1287C65.8708 27.467 66.6171 27.8048 67.3638 28.1432C67.825 26.9787 68.2856 25.8143 68.7468 24.6499C68.7591 24.029 68.4018 23.4645 67.8511 23.2275C67.2343 22.9624 66.4912 23.1589 66.0638 23.7148V23.7153Z" fill="#FAAF3B"/>
<path d="M58.1252 24.0311L57.185 25.7795C57.1681 25.8113 57.185 25.8502 57.2198 25.8594L62.1109 27.1215C62.1436 27.1302 62.1764 27.1072 62.1794 27.0729L62.3376 25.3629C62.3402 25.3368 62.3238 25.3127 62.2992 25.3051L58.1902 24.0045C58.1651 23.9963 58.1375 24.0076 58.1247 24.0311H58.1252Z" fill="#1A1A1A"/>
<path d="M58.1574 23.9517L57.2172 25.6996C57.2003 25.7314 57.2172 25.7708 57.252 25.7795L62.1426 27.0411C62.1758 27.0498 62.2086 27.0263 62.2117 26.9925L62.3693 25.283C62.3719 25.2569 62.3555 25.2328 62.3309 25.2252L58.2224 23.9246C58.1969 23.9164 58.1692 23.9277 58.1569 23.9512L58.1574 23.9517Z" fill="#333333"/>
<path d="M65.2689 27.1942L65.124 27.5136L60.4776 26.4372C60.4776 26.4372 59.5231 24.8326 59.2794 25.0358C59.0358 25.239 59.3199 25.7063 59.2794 25.8281C59.239 25.9499 58.6934 26.1813 58.4313 26.148C58.1519 26.1127 57.5039 25.9479 57.5039 25.9479C57.5039 25.9479 57.6139 26.2954 58.3653 26.7627C59.1167 27.23 60.2949 26.8641 60.2949 27.0063C60.2949 27.1486 64.9464 29.586 65.8606 29.5655C66.7747 29.545 67.1739 28.0577 67.1739 28.0577L65.2689 27.1947V27.1942Z" fill="#F4A67A"/>
<path d="M62.1231 46.2615V47.0062L63.6397 46.8711L63.6469 46.2615H62.1231Z" fill="#F4A67A"/>
<path d="M69.8359 46.2891L70.0366 46.6986L71.3289 46.3157L71.0966 45.8423L69.8359 46.2891Z" fill="#F4A67A"/>
<path d="M65.3057 21.3184C65.3057 21.3184 66.0719 21.1986 66.1441 20.7293C66.1482 20.847 66.1395 20.9857 66.1016 21.1362C65.965 21.6823 65.5447 21.9904 65.3897 22.0928C65.3615 21.8348 65.3334 21.5763 65.3052 21.3184H65.3057Z" fill="#E59973"/>
<path d="M68.2436 18.5356L68.2421 18.5407C68.1991 18.6338 68.1541 18.7178 68.1106 18.7894L64.5513 17.8563C64.2872 17.9065 63.8665 17.9567 63.5962 17.9766C62.6155 18.0498 61.6732 17.7376 61.686 17.5805C61.6876 17.562 61.7019 17.5457 61.8396 17.5119C61.8811 17.5585 62.0433 17.712 62.6938 17.7571C63.0777 17.7837 63.6627 17.7576 64.0773 17.732C64.365 17.7146 64.5707 17.6967 64.5707 17.6967L68.2436 18.5356Z" fill="#EA821B"/>
<path d="M68.2421 18.5406L68.2329 18.5606C68.2298 18.5606 68.2273 18.5611 68.2242 18.5616C68.2744 18.1076 68.2088 17.6414 68.0358 17.2186C67.9714 17.0625 67.8915 16.9105 67.7763 16.7871C67.6653 16.6679 67.525 16.5793 67.3868 16.4928C67.1821 16.3643 66.9748 16.2348 66.745 16.1606C66.3089 16.0204 65.8319 16.0931 65.3922 16.222C65.0421 16.3249 64.7023 16.4621 64.3793 16.632C64.2462 16.7016 64.1142 16.7789 64.0021 16.8797C63.9478 16.9284 63.8849 17.0215 63.8086 17.0251C64.2135 16.2568 65.3185 15.5935 66.3622 15.8238C68.7667 16.3556 68.5943 17.7683 68.2421 18.5406Z" fill="#F9A55A"/>
<path d="M64.6818 17.6828C64.5477 17.6408 64.4136 17.5989 64.279 17.5569C64.1787 17.5257 64.0778 17.494 63.9857 17.4438C63.8972 17.3957 63.7579 17.2989 63.7339 17.1848C63.7354 17.1812 63.7364 17.1782 63.738 17.1746H63.7385C63.7472 17.1531 63.7564 17.1316 63.7661 17.1101C63.7856 17.1408 63.783 17.1812 63.8076 17.217C63.8439 17.2703 63.9028 17.303 63.9606 17.3291C64.1807 17.4274 64.4223 17.4791 64.6301 17.6014C64.6603 17.6194 64.6941 17.6501 64.6818 17.6828Z" fill="#EA821B"/>
<path d="M8.67915 27.8796L13.3399 26.0313C13.3399 26.0313 14.2433 24.8628 14.2433 25.3322C14.2433 25.8015 13.4484 26.4705 13.4484 26.4705C13.4484 26.4705 13.887 27.3554 13.3399 27.6088C12.7927 27.8616 12.22 27.4619 12.22 27.4619C12.22 27.4619 7.95695 30.3584 7.48709 29.9771C7.01723 29.5957 6.8862 28.7614 6.8862 28.7614L8.67915 27.8796Z" fill="#F7B19F"/>
<path d="M3.57312 23.5991C3.30236 23.5796 1.58004 26.9669 1.94447 27.661C2.54587 28.807 4.17094 30.6342 4.17094 30.6342L4.30197 29.0066L3.31669 27.4916L4.3465 26.5503L3.57312 23.5996V23.5991Z" fill="#F7B19F"/>
<path d="M4.84398 47.0507C4.84398 47.0507 6.32522 47.9295 6.99367 47.9147C7.66213 47.8998 8.36641 48.0984 7.80646 48.4234C7.24652 48.7485 3.07355 48.6584 3.05563 48.4234C3.03772 48.1885 3.03772 46.978 3.03772 46.978L4.84398 47.0502V47.0507Z" fill="#AF232D"/>
<path d="M8.38891 47.0508C8.38891 47.0508 10.1547 47.8999 10.751 47.8277C11.3473 47.7555 11.8166 48.4598 11.0039 48.6948C10.1911 48.9297 6.72238 48.6047 6.72238 48.5504C6.72238 48.4962 6.7403 47.0513 6.83089 47.0513H8.38891V47.0508Z" fill="#C0272D"/>
<path d="M2.43787 29.9771C2.43787 29.9771 1.84465 31.3708 2.13384 32.6171C2.73166 35.1947 3.25475 36.2992 3.18156 39.0508C3.16006 39.8698 3.06333 39.8329 2.92872 41.0895C2.66154 43.5846 2.83966 45.6269 3.03722 46.9786C3.63914 47.0027 4.24157 47.0267 4.84348 47.0508C5.24066 43.3533 5.63836 39.6563 6.03554 35.9588C5.66702 35.5632 4.26357 33.9658 4.51795 31.9302C4.56811 31.5305 4.67458 31.1717 4.80714 30.8569L2.43736 29.9765L2.43787 29.9771Z" fill="#E04C1E"/>
<path d="M6.95732 30.9367C6.95732 30.9367 8.63716 36.5009 9.03485 37.8736C9.43203 39.2463 8.38892 47.0503 8.38892 47.0503H6.8309C6.8309 47.0503 5.99969 43.0037 6.54172 41.3781C7.08375 39.7525 7.04741 39.2463 7.04741 39.2463C7.04741 39.2463 1.81238 33.4846 2.05499 31.9302C2.2976 30.3758 2.43784 29.9765 2.43784 29.9765L6.95732 30.9367Z" fill="#F05A24"/>
<path d="M2.35391 25.6956L3.19383 26.9798L4.20572 26.7761L3.08583 23.6186L2.35391 25.6956Z" fill="#E27E1A"/>
<path d="M7.66111 24.4293C7.46252 23.7603 5.6752 22.8303 5.6752 22.8303H4.10951C3.61713 22.9117 3.37349 23.1267 3.24246 23.3048C2.71272 24.0239 3.37503 25.0092 3.19435 26.9792C3.13191 27.66 3.00702 28.2138 2.92769 28.5209C2.60677 29.76 2.23006 30.1746 2.1973 30.5462C2.1927 30.6004 2.19525 30.6532 2.20651 30.7079C2.31758 31.2561 3.27573 31.8867 7.30641 32.0924C7.23322 31.7567 7.12676 31.2612 6.99983 30.6475C6.89029 30.1173 6.83502 29.8358 6.86931 29.4514C6.89848 29.1248 6.97986 28.8602 7.04794 28.6816C7.24704 28.6816 7.58229 28.5951 7.90423 28.4518C8.22669 28.308 8.53481 28.1078 8.67966 27.8795C8.67966 27.8795 7.86022 25.0977 7.66111 24.4293Z" fill="#F6921E"/>
<path d="M7.89809 19.6093L7.8464 20.1718C7.66521 20.7272 7.58792 21.1822 7.55158 21.4995C7.51575 21.8076 7.51729 21.9945 7.38267 22.1736C7.15184 22.4812 6.7004 22.5273 6.38307 22.5232C6.38358 22.5324 6.38358 22.5421 6.38409 22.5513C6.39023 22.7612 6.39586 22.971 6.402 23.1809C6.40405 23.2572 6.40661 23.3329 6.40866 23.4092C6.40866 23.4092 5.39625 24.2931 4.58142 23.4092C4.58142 23.4092 4.60957 22.4275 4.58142 21.3378C4.55327 20.2486 4.41251 19.5177 4.83426 19.2086C5.25601 18.8994 7.02695 18.3794 7.89809 19.6093Z" fill="#F7B19F"/>
<path d="M7.8464 20.1719L7.83411 20.306C7.82848 20.305 7.82029 20.3039 7.81006 20.3029C7.55824 20.2763 7.35146 20.4263 7.21633 20.5271C6.88722 20.7728 6.69324 21.1203 6.61493 21.2769C6.61749 21.2058 6.64103 20.7533 7.02542 20.4329C7.37091 20.1453 7.7645 20.1657 7.8464 20.1719Z" fill="#E89B8B"/>
<path d="M3.44257 20.2348C3.41494 20.2405 2.95838 20.3439 2.59907 20.6986C1.82826 21.4612 2.07189 22.8298 2.16965 23.3795C2.35903 24.4426 2.86369 25.2257 3.24501 25.6997C3.35352 24.9729 3.35966 24.3771 3.3443 23.9594C3.30694 22.9639 3.12421 22.4449 3.42875 21.9213C3.64935 21.5421 4.01992 21.3424 4.30041 21.2324C4.39817 21.5559 4.49593 21.8788 4.59369 22.2023C4.82862 22.2678 5.06355 22.3334 5.29848 22.3994C5.74582 21.9009 5.86866 21.4899 5.89425 21.2002C5.9091 21.0338 5.90551 20.8112 6.04064 20.7257C6.18241 20.6356 6.38254 20.7129 6.4803 20.849C6.57806 20.9857 6.59802 21.1613 6.60672 21.3291C6.68554 20.7764 7.1206 20.2911 7.66161 20.1535C6.89847 20.0798 6.13584 20.0061 5.37269 19.9329C5.33328 19.9293 5.23655 19.9119 5.11166 19.9329C4.81531 19.982 4.60751 20.1918 4.48467 20.349C4.33265 20.2819 3.93291 20.1309 3.44309 20.2354L3.44257 20.2348Z" fill="#42210B"/>
<path d="M8.01069 20.2205H4.51129V19.8714C4.51129 19.0028 5.21557 18.2991 6.08415 18.2991H6.08927C7.0121 18.2991 7.78344 18.9501 7.96821 19.8182C7.97896 19.8678 7.98766 19.918 7.99431 19.9692C8.00506 20.0516 8.01069 20.1355 8.01069 20.2205Z" fill="#F6921E"/>
<path d="M6.99983 30.6475C7.12676 31.2612 7.23322 31.7567 7.30641 32.0924C3.27573 31.8867 2.31758 31.2561 2.20651 30.7079C2.19525 30.6532 2.1927 30.6004 2.1973 30.5462C2.22852 30.5549 2.25923 30.5646 2.28841 30.5748C4.2953 31.2786 5.33791 31.5263 5.63477 31.3385C6.11128 31.0365 6.03656 30.1193 5.92549 28.7614C5.82056 27.4752 5.5022 26.5334 5.89478 25.5594C5.9562 25.4074 6.14404 24.9247 6.3974 24.9411C6.52587 24.9498 6.65843 25.0471 6.76745 25.2723C7.17845 26.1168 7.59253 26.9705 7.80135 27.8867C7.84435 28.0735 7.87762 28.2624 7.90423 28.4518C7.58229 28.5951 7.24704 28.6816 7.04794 28.6816C6.97986 28.8602 6.89848 29.1248 6.86931 29.4514C6.83502 29.8358 6.89029 30.1173 6.99983 30.6475Z" fill="#E5801A"/>
<path d="M8.01069 20.2205L7.75784 20.0096C7.75784 20.0096 7.76757 19.9999 7.78599 19.983C7.81977 19.9507 7.88426 19.8919 7.96821 19.8182C8.24818 19.5751 8.75029 19.1769 9.12188 19.0965C9.28157 19.0622 9.4172 19.0873 9.50063 19.2086C9.86608 19.7429 8.01069 20.2205 8.01069 20.2205Z" fill="#F6921E"/>
<path d="M7.66111 24.4293C7.66111 24.4293 7.41492 23.9778 7.01722 24.1129C6.62004 24.2486 5.74123 24.8986 6.03604 25.5491C6.33086 26.1997 6.9425 29.0168 6.9425 29.0168C6.9425 29.0168 8.13711 28.5843 8.67914 27.8795L7.66111 24.4293Z" fill="#FAAF3B"/>
<path d="M8.01069 20.2205H4.51129V19.9282C4.56503 19.9359 4.62082 19.9456 4.68071 19.9543C4.93611 19.9907 5.21864 19.962 5.47712 19.9656C6.0038 19.9733 6.52996 19.9809 7.05663 19.9886C7.29924 19.9922 7.5439 19.9953 7.786 19.983C7.8556 19.9799 7.92521 19.9753 7.99431 19.9692C8.2016 19.9507 8.40634 19.918 8.60646 19.8622C8.77588 19.8146 8.94478 19.7481 9.0753 19.6303C9.20633 19.5126 9.29385 19.3355 9.26775 19.1615C9.21503 19.1508 9.16538 19.1287 9.12188 19.0965C9.28157 19.0622 9.4172 19.0873 9.50063 19.2086C9.86608 19.7429 8.01069 20.2205 8.01069 20.2205Z" fill="#E5801A"/>
<path d="M4.90387 19.3422C4.91718 19.2741 5.01135 18.839 5.43771 18.5852C5.87482 18.3252 6.31346 18.4628 6.37744 18.4838C6.23259 18.4792 5.86714 18.4874 5.48941 18.7177C5.14392 18.9281 4.97194 19.2127 4.90387 19.3422Z" fill="#F9B673"/>
<path d="M6.40201 23.1809C6.35492 23.1738 6.30885 23.162 6.26637 23.141C6.16298 23.0903 6.0903 22.9905 6.04884 22.883C6.00738 22.7756 5.99356 22.6599 5.97974 22.5457C5.97155 22.4746 5.96337 22.4029 5.97463 22.3323C5.97463 22.3635 6.26381 22.4879 6.38409 22.5514C6.39023 22.7612 6.39586 22.9711 6.40201 23.1809Z" fill="#E89B8B"/>
</g>
<defs>
<clipPath id="clip0_93_1067">
<rect width="73.9931" height="48.2034" fill="white" transform="translate(0 0.742706)"/>
</clipPath>
</defs>
</svg>
