<svg width="18" height="18" viewBox="0 0 18 18" fill="none" xmlns="http://www.w3.org/2000/svg">
<path d="M9.54526 2.76519C9.61293 2.69359 9.66582 2.60936 9.70094 2.51731C9.73605 2.42527 9.75269 2.32721 9.7499 2.22873C9.74711 2.13025 9.72496 2.03329 9.6847 1.94337C9.64444 1.85346 9.58687 1.77236 9.51526 1.70469C9.44366 1.63703 9.35943 1.58413 9.26738 1.54902C9.17534 1.51391 9.07728 1.49727 8.9788 1.50006C8.88032 1.50284 8.78336 1.525 8.69344 1.56526C8.60353 1.60551 8.52243 1.66309 8.45476 1.73469L2.07976 8.48469C1.94811 8.62394 1.87476 8.80831 1.87476 8.99994C1.87476 9.19158 1.94811 9.37594 2.07976 9.51519L8.45476 16.2659C8.52198 16.3391 8.60307 16.3982 8.69331 16.4398C8.78356 16.4813 8.88116 16.5046 8.98046 16.5081C9.07975 16.5116 9.17876 16.4954 9.27173 16.4603C9.3647 16.4253 9.44977 16.3721 9.52201 16.3039C9.59425 16.2356 9.65222 16.1538 9.69254 16.0629C9.73287 15.9721 9.75475 15.8742 9.75691 15.7749C9.75907 15.6756 9.74148 15.5768 9.70514 15.4843C9.66881 15.3918 9.61446 15.3075 9.54526 15.2362L3.65626 8.99994L9.54526 2.76519Z" fill="black"/>
</svg>
