<svg width="27" height="27" viewBox="0 0 27 27" fill="none" xmlns="http://www.w3.org/2000/svg">
<circle cx="13.5" cy="13.5" r="13.5" fill="#233E55"/>
<path d="M17.4079 17.7332C17.1488 17.7332 16.9003 17.6302 16.7171 17.447C16.5339 17.2638 16.4309 17.0153 16.4309 16.7562C16.4309 16.4971 16.5339 16.2486 16.7171 16.0654C16.9003 15.8822 17.1488 15.7792 17.4079 15.7792C17.667 15.7792 17.9155 15.8822 18.0987 16.0654C18.2819 16.2486 18.3849 16.4971 18.3849 16.7562C18.3849 17.0153 18.2819 17.2638 18.0987 17.447C17.9155 17.6302 17.667 17.7332 17.4079 17.7332ZM18.3849 11.8713L19.6615 13.4996H16.7566V11.8713M9.59212 17.7332C9.33301 17.7332 9.08451 17.6302 8.90129 17.447C8.71808 17.2638 8.61515 17.0153 8.61515 16.7562C8.61515 16.4971 8.71808 16.2486 8.90129 16.0654C9.08451 15.8822 9.33301 15.7792 9.59212 15.7792C9.85123 15.7792 10.0997 15.8822 10.2829 16.0654C10.4662 16.2486 10.5691 16.4971 10.5691 16.7562C10.5691 17.0153 10.4662 17.2638 10.2829 17.447C10.0997 17.6302 9.85123 17.7332 9.59212 17.7332ZM18.7105 10.8944H16.7566V8.28909H7.63817C6.91521 8.28909 6.33554 8.86876 6.33554 9.59172V16.7562H7.63817C7.63817 17.2744 7.84403 17.7714 8.21047 18.1378C8.57691 18.5043 9.0739 18.7101 9.59212 18.7101C10.1103 18.7101 10.6073 18.5043 10.9738 18.1378C11.3402 17.7714 11.5461 17.2744 11.5461 16.7562H15.454C15.454 17.2744 15.6598 17.7714 16.0263 18.1378C16.3927 18.5043 16.8897 18.7101 17.4079 18.7101C17.9261 18.7101 18.4231 18.5043 18.7896 18.1378C19.156 17.7714 19.3619 17.2744 19.3619 16.7562H20.6645V13.4996L18.7105 10.8944Z" fill="white"/>
</svg>
