<svg width="27" height="27" viewBox="0 0 27 27" fill="none" xmlns="http://www.w3.org/2000/svg">
<circle cx="13.5" cy="13.5" r="13.5" fill="#78C841"/>
<path d="M12.4328 17.7639L9.80031 15.1314L10.8057 14.126L12.4357 15.7559L16.1965 11.9951L17.2019 13.0005L12.4328 17.7639ZM19.8948 9.23685V18.4737C19.8948 18.8506 19.745 19.212 19.4785 19.4785C19.212 19.745 18.8506 19.8947 18.4737 19.8947H8.52634C8.14945 19.8947 7.788 19.745 7.5215 19.4785C7.255 19.212 7.10529 18.8506 7.10529 18.4737V9.23685C7.10529 8.85996 7.255 8.49851 7.5215 8.23201C7.788 7.96552 8.14945 7.8158 8.52634 7.8158H9.23686V6.39474H10.6579V7.8158H16.3421V6.39474H17.7632V7.8158H18.4737C18.8506 7.8158 19.212 7.96552 19.4785 8.23201C19.745 8.49851 19.8948 8.85996 19.8948 9.23685ZM18.4737 10.6579H8.52634V18.4737H18.4737V10.6579Z" fill="white"/>
</svg>
