<svg width="27" height="27" viewBox="0 0 27 27" fill="none" xmlns="http://www.w3.org/2000/svg">
<circle cx="13.5" cy="13.5" r="13.5" fill="#03ED5E"/>
<path d="M12.4328 17.7639L9.80031 15.1314L10.8057 14.126L12.4357 15.756L16.1965 11.9951L17.2019 13.0005L12.4328 17.7639ZM19.8948 9.23688V18.4737C19.8948 18.8506 19.745 19.2121 19.4785 19.4786C19.212 19.7451 18.8506 19.8948 18.4737 19.8948H8.52634C8.14945 19.8948 7.788 19.7451 7.5215 19.4786C7.255 19.2121 7.10529 18.8506 7.10529 18.4737V9.23688C7.10529 8.85999 7.255 8.49854 7.5215 8.23204C7.788 7.96555 8.14945 7.81583 8.52634 7.81583H9.23686V6.39478H10.6579V7.81583H16.3421V6.39478H17.7632V7.81583H18.4737C18.8506 7.81583 19.212 7.96555 19.4785 8.23204C19.745 8.49854 19.8948 8.85999 19.8948 9.23688ZM18.4737 10.6579H8.52634V18.4737H18.4737V10.6579Z" fill="white"/>
</svg>
