<svg width="18" height="18" viewBox="0 0 18 18" fill="none" xmlns="http://www.w3.org/2000/svg">
<path d="M12.75 11.25H14.25V12.75H12.75V11.25ZM14.25 8.25H12.75V9.75H14.25V8.25Z" fill="white"/>
<path fill-rule="evenodd" clip-rule="evenodd" d="M9.75 5.25H17.25V15.75H0.75V2.25H9.75V5.25ZM6 3.75H8.25V5.25H6V3.75ZM8.25 14.25V12.75H6V14.25H8.25ZM8.25 11.25V9.75H6V11.25H8.25ZM8.25 8.25V6.75H6V8.25H8.25ZM15.75 14.25V6.75H9.75V8.25H11.25V9.75H9.75V11.25H11.25V12.75H9.75V14.25H15.75ZM2.25 14.25V12.75H4.5V14.25H2.25ZM2.25 11.25H4.5V9.75H2.25V11.25ZM4.5 8.25V6.75H2.25V8.25H4.5ZM2.25 5.25H4.5V3.75H2.25V5.25Z" fill="white"/>
</svg>
