<svg width="21" height="21" viewBox="0 0 21 21" fill="none" xmlns="http://www.w3.org/2000/svg">
<circle cx="10.5" cy="10.5" r="10.5" fill="white"/>
<path d="M6.20312 16C5.88404 16 5.57802 15.8732 5.35239 15.6476C5.12676 15.422 5 15.116 5 14.7969V6.20312C5 5.539 5.539 5 6.20312 5H12.0469C12.711 5 13.25 5.539 13.25 6.20312V14.7969C13.25 14.8551 13.2459 14.9124 13.2376 14.9688H14.7969C14.8425 14.9688 14.8862 14.9506 14.9184 14.9184C14.9506 14.8862 14.9688 14.8425 14.9688 14.7969V10.6959C14.9688 10.6677 14.9618 10.6398 14.9485 10.6149C14.9352 10.5899 14.9159 10.5687 14.8924 10.5529L14.1671 10.0696C14.1108 10.0321 14.0624 9.98378 14.0247 9.92752C13.987 9.87126 13.9608 9.80814 13.9475 9.74174C13.9343 9.67535 13.9342 9.60699 13.9473 9.54057C13.9605 9.47415 13.9866 9.41096 14.0241 9.35463C14.0617 9.29829 14.11 9.2499 14.1662 9.21222C14.2225 9.17455 14.2856 9.14832 14.352 9.13504C14.4184 9.12176 14.4868 9.12169 14.5532 9.13483C14.6196 9.14797 14.6828 9.17407 14.7391 9.21163L15.4644 9.69494C15.7992 9.91838 16 10.2937 16 10.6959V14.7969C16 15.116 15.8732 15.422 15.6476 15.6476C15.422 15.8732 15.116 16 14.7969 16H12.3906C12.3449 15.9997 12.2994 15.9937 12.2552 15.9821C12.1874 15.994 12.1179 16 12.0469 16H9.98438C9.84762 16 9.71647 15.9457 9.61977 15.849C9.52307 15.7523 9.46875 15.6211 9.46875 15.4844V14.625H8.78125V15.4844C8.78125 15.6211 8.72693 15.7523 8.63023 15.849C8.53353 15.9457 8.40238 16 8.26562 16H6.20312ZM6.03125 14.7969C6.03125 14.8918 6.10825 14.9688 6.20312 14.9688H7.75V14.1094C7.75 13.9726 7.80432 13.8415 7.90102 13.7448C7.99772 13.6481 8.12887 13.5938 8.26562 13.5938H9.98438C10.1211 13.5938 10.2523 13.6481 10.349 13.7448C10.4457 13.8415 10.5 13.9726 10.5 14.1094V14.9688H12.0469C12.0925 14.9688 12.1362 14.9506 12.1684 14.9184C12.2006 14.8862 12.2188 14.8425 12.2188 14.7969V6.20312C12.2188 6.15754 12.2006 6.11382 12.1684 6.08159C12.1362 6.04936 12.0925 6.03125 12.0469 6.03125H6.20312C6.15754 6.03125 6.11382 6.04936 6.08159 6.08159C6.04936 6.11382 6.03125 6.15754 6.03125 6.20312V14.7969ZM7.57812 9.125H7.92188C8.05863 9.125 8.18978 9.17932 8.28648 9.27602C8.38318 9.37272 8.4375 9.50387 8.4375 9.64062C8.4375 9.77738 8.38318 9.90853 8.28648 10.0052C8.18978 10.1019 8.05863 10.1562 7.92188 10.1562H7.57812C7.44137 10.1562 7.31022 10.1019 7.21352 10.0052C7.11682 9.90853 7.0625 9.77738 7.0625 9.64062C7.0625 9.50387 7.11682 9.37272 7.21352 9.27602C7.31022 9.17932 7.44137 9.125 7.57812 9.125ZM7.0625 7.57812C7.0625 7.44137 7.11682 7.31022 7.21352 7.21352C7.31022 7.11682 7.44137 7.0625 7.57812 7.0625H7.92188C8.05863 7.0625 8.18978 7.11682 8.28648 7.21352C8.38318 7.31022 8.4375 7.44137 8.4375 7.57812C8.4375 7.71488 8.38318 7.84603 8.28648 7.94273C8.18978 8.03943 8.05863 8.09375 7.92188 8.09375H7.57812C7.44137 8.09375 7.31022 8.03943 7.21352 7.94273C7.11682 7.84603 7.0625 7.71488 7.0625 7.57812ZM9.8125 9.64062C9.8125 9.50387 9.86682 9.37272 9.96352 9.27602C10.0602 9.17932 10.1914 9.125 10.3281 9.125H10.6719C10.8086 9.125 10.9398 9.17932 11.0365 9.27602C11.1332 9.37272 11.1875 9.50387 11.1875 9.64062C11.1875 9.77738 11.1332 9.90853 11.0365 10.0052C10.9398 10.1019 10.8086 10.1562 10.6719 10.1562H10.3281C10.1914 10.1562 10.0602 10.1019 9.96352 10.0052C9.86682 9.90853 9.8125 9.77738 9.8125 9.64062ZM10.3281 7.0625H10.6719C10.8086 7.0625 10.9398 7.11682 11.0365 7.21352C11.1332 7.31022 11.1875 7.44137 11.1875 7.57812C11.1875 7.71488 11.1332 7.84603 11.0365 7.94273C10.9398 8.03943 10.8086 8.09375 10.6719 8.09375H10.3281C10.1914 8.09375 10.0602 8.03943 9.96352 7.94273C9.86682 7.84603 9.8125 7.71488 9.8125 7.57812C9.8125 7.44137 9.86682 7.31022 9.96352 7.21352C10.0602 7.11682 10.1914 7.0625 10.3281 7.0625ZM7.0625 11.7031C7.0625 11.5664 7.11682 11.4352 7.21352 11.3385C7.31022 11.2418 7.44137 11.1875 7.57812 11.1875H7.92188C8.05863 11.1875 8.18978 11.2418 8.28648 11.3385C8.38318 11.4352 8.4375 11.5664 8.4375 11.7031C8.4375 11.8399 8.38318 11.971 8.28648 12.0677C8.18978 12.1644 8.05863 12.2188 7.92188 12.2188H7.57812C7.44137 12.2188 7.31022 12.1644 7.21352 12.0677C7.11682 11.971 7.0625 11.8399 7.0625 11.7031ZM10.3281 11.1875H10.6719C10.8086 11.1875 10.9398 11.2418 11.0365 11.3385C11.1332 11.4352 11.1875 11.5664 11.1875 11.7031C11.1875 11.8399 11.1332 11.971 11.0365 12.0677C10.9398 12.1644 10.8086 12.2188 10.6719 12.2188H10.3281C10.1914 12.2188 10.0602 12.1644 9.96352 12.0677C9.86682 11.971 9.8125 11.8399 9.8125 11.7031C9.8125 11.5664 9.86682 11.4352 9.96352 11.3385C10.0602 11.2418 10.1914 11.1875 10.3281 11.1875Z" fill="#5D768B"/>
</svg>
