<svg width="14" height="14" viewBox="0 0 14 14" fill="none" xmlns="http://www.w3.org/2000/svg">
<path d="M2.80471 11.6666C2.67132 11.6666 2.55932 11.6215 2.46871 11.5313C2.3781 11.441 2.33299 11.329 2.33338 11.1953V10.5886C2.33338 10.4595 2.35865 10.3366 2.40921 10.2199C2.45977 10.1033 2.52763 10.0025 2.61279 9.91775L10.0217 2.50067C10.0812 2.44739 10.1471 2.40617 10.2195 2.377C10.2918 2.34784 10.3672 2.33325 10.4458 2.33325C10.5243 2.33325 10.6002 2.3457 10.6733 2.37059C10.7464 2.39547 10.8145 2.43981 10.8775 2.50359L11.4999 3.13009C11.564 3.19192 11.608 3.25997 11.6317 3.33425C11.655 3.40814 11.6667 3.48203 11.6667 3.55592C11.6667 3.63525 11.6535 3.71109 11.627 3.78342C11.6002 3.85536 11.5578 3.92128 11.4999 3.98117L4.08221 11.3872C3.99782 11.4719 3.8971 11.5396 3.78004 11.5902C3.66299 11.6407 3.5401 11.6662 3.41138 11.6666H2.80471ZM10.2107 4.42684L11.0834 3.56467L10.4353 2.91659L9.57371 3.78925L10.2107 4.42684Z" fill="black"/>
</svg>
