<svg width="16" height="16" viewBox="0 0 16 16" fill="none" xmlns="http://www.w3.org/2000/svg">
<path d="M7.98378 0.51251C2.98253 0.64376 0.276284 4.35501 0.527534 8.45876C0.760034 12.2513 3.90878 15.5263 8.12503 15.455C12.735 15.3763 15.315 11.815 15.45 8.05751C15.6 3.91126 12.0575 0.40501 7.98378 0.51251Z" fill="#233E55"/>
<path d="M8.03249 2.19126C4.24124 2.29251 2.13999 5.22751 2.28999 8.39751C2.42499 11.2663 4.91999 13.8613 8.11374 13.7213C11.375 13.5788 13.5212 11.0288 13.6675 8.01126C13.8212 4.81251 11.12 2.10876 8.03249 2.19126Z" fill="white"/>
<path d="M7.9676 3.04749C4.72135 3.13249 3.00385 5.54374 3.1401 8.28874C3.25885 10.7012 5.39009 12.8137 8.12759 12.7675C11.1201 12.7162 12.7713 10.5475 12.8826 7.96499C12.9976 5.27249 10.6126 2.97749 7.9676 3.04749Z" fill="#233E55"/>
<path d="M4.00738 7.27001C4.31988 7.37126 4.52988 6.31376 5.61988 5.43626C6.70863 4.56001 7.89738 4.50876 7.86738 4.01501C7.83738 3.52126 6.58363 3.61251 5.82113 4.06501C5.07488 4.50876 4.41988 5.08251 4.05738 5.98001C3.84738 6.49876 3.77363 7.19501 4.00738 7.27001Z" fill="#DEDEDE"/>
<path d="M4.99501 1.84751C4.83876 1.63501 4.16876 1.80751 3.40251 2.49251C2.75876 3.06876 2.43501 3.80251 2.67626 4.01376C2.91876 4.22501 3.43251 3.56001 3.96626 3.07626C4.50001 2.59251 5.27626 2.23126 4.99501 1.84751ZM13.8138 10.5463C13.3988 10.3988 13.25 11.0738 13.0575 11.3825C12.1913 12.7738 10.9913 13.44 10.2863 13.7513C9.85251 13.9425 9.46001 13.9525 9.59126 14.3763C9.69251 14.7025 10.3975 14.4275 10.64 14.3263C11.0738 14.145 11.91 13.68 12.565 13.0863C13.2 12.5113 13.6175 11.9288 13.835 11.3525C13.8838 11.2175 14.125 10.6563 13.8138 10.5463Z" fill="white"/>
</svg>
