<svg width="76" height="44" viewBox="0 0 76 44" fill="none" xmlns="http://www.w3.org/2000/svg">
<g clip-path="url(#clip0_93_1019)">
<path d="M18.2112 32.3742H9.5531V43.7004H18.2112V32.3742Z" fill="#D3671E"/>
<path d="M13.8822 32.3749H5.22403V43.7011H13.8822V32.3749Z" fill="#F1A34F"/>
<path d="M18.2062 41.8585H16.8341L16.9549 41.4654L16.8341 41.1851H18.2062V41.8585Z" fill="#F1A34F"/>
<path d="M5.22403 41.2528V43.7006H13.8822V32.3749H12.3483L5.22403 41.2528Z" fill="#E78B37"/>
<path opacity="0.4" d="M5.22403 34.0034H6.59617L6.47538 33.6108L6.59617 33.33H5.22403V34.0034Z" fill="#D86713"/>
<path d="M5.22403 42.5319H6.59617L6.47538 42.1388L6.59617 41.8585H5.22403V42.5319Z" fill="#F1A34F"/>
<path d="M34.2662 15.7306C34.4853 15.2476 34.367 14.9892 34.367 14.9892C34.367 14.9892 29.2947 13.0751 28.8025 12.9472C28.4671 12.8598 24.6637 11.249 22.7594 10.1221C21.815 9.56298 21.0818 10.1642 20.2183 10.7787L19.507 11.2845C18.6485 11.8954 18.8581 13.3377 19.8624 13.7231C22.69 14.8089 27.057 15.6153 27.8901 15.8144C29.9586 16.3085 33.7251 16.4385 33.7251 16.4385C33.7251 16.4385 34.0775 16.1445 34.2657 15.7301L34.2662 15.7306Z" fill="#A03C37"/>
<path d="M49.8908 15.6625L49.2105 15.7016C49.2105 15.7016 48.0066 15.2344 47.3752 16.5071C47.3752 16.5071 47.1535 17.0525 47.5718 17.0784C47.9906 17.1043 47.8334 17.0332 48.4229 17.0829C49.0123 17.1327 49.5714 16.9021 49.7631 16.5071L50.1354 16.1846L49.8913 15.6625H49.8908Z" fill="#FFB27D"/>
<path d="M49.3917 16.1577C49.2459 15.6813 49.2804 15.6057 49.2804 15.6057C49.2804 15.6057 53.4382 13.3311 53.8191 13.1005C54.1999 12.87 58.5021 8.23398 58.5021 8.23398L62.895 9.47562C62.895 9.47562 56.0802 14.7312 55.1044 15.2964C53.4912 16.2308 49.7596 16.7523 49.7596 16.7523C49.7596 16.7523 49.5065 16.5324 49.3917 16.1582V16.1577Z" fill="#233862"/>
<path d="M54.175 19.2377L36.9635 22.9651L32.9744 3.89913L50.1858 0.171646L54.175 19.2377Z" fill="#D57912"/>
<path d="M46.8426 20.8257L34.2482 23.5532L30.259 4.4872L42.8534 1.75964L46.8426 20.8257Z" fill="#E69D43"/>
<path d="M46.8426 20.8256L34.2482 23.5532L33.477 19.8664L40.768 2.21161L42.8534 1.76015L46.8426 20.8262V20.8256Z" fill="#E78B37"/>
<path d="M37.9059 40.8108C37.9059 40.8108 38.5768 41.5634 40.1331 41.1541C40.1331 41.1541 41.3879 40.8631 41.6635 41.4999C41.6635 41.4999 40.0837 42.5166 39.597 42.7888C39.2296 42.994 38.8468 43.3175 38.5758 43.5678C38.3616 43.7659 38.0277 43.739 37.845 43.5104C37.7602 43.4043 37.6633 43.2784 37.5575 43.1321C37.2605 42.7228 36.5692 41.4014 36.5692 41.4014L37.9064 40.8113L37.9059 40.8108Z" fill="#233862"/>
<path d="M38.5024 40.4172C38.5024 40.4172 37.8839 41.8681 36.4559 41.6015C36.4559 41.6015 33.5424 39.1533 31.5438 36.61C30.8949 35.7843 30.3419 34.9479 30.0175 34.1831C28.6922 31.061 25.1149 26.4052 22.8408 24.0453L28.531 21.951C28.531 21.951 30.3539 25.681 32.7787 30.2632C34.5262 33.5646 36.5862 37.3083 38.5029 40.4172H38.5024Z" fill="#2B478B"/>
<path d="M32.7782 30.2632L31.5438 36.6106C30.8949 35.7848 30.3419 34.9484 30.0175 34.1836C28.6922 31.0615 25.1149 26.4057 22.8408 24.0458L28.531 21.9515C28.531 21.9515 30.3539 25.6815 32.7787 30.2637L32.7782 30.2632Z" fill="#233862"/>
<path d="M28.1272 41.6528C28.1272 41.6528 28.0653 42.8107 29.4449 42.965C29.4449 42.965 30.2775 42.9823 30.28 43.7192H26.226C26.226 43.7192 26.1097 43.4221 26.0812 42.7853C26.0597 42.2962 26.5469 41.018 26.5469 41.018L28.1272 41.6528Z" fill="#233862"/>
<path d="M26.6642 21.951C26.6642 21.951 29.1994 24.7847 30.8081 29.8904C31.6836 32.6683 29.2034 39.6525 28.7197 42.0789C28.7197 42.0789 27.056 42.2226 25.9185 41.7752C25.9185 41.7752 25.8321 36.7634 26.4975 32.9003C26.8699 30.7385 23.1597 28.2765 21.5385 24.3703C20.4354 21.7128 21.7776 21.758 23.4263 21.694L26.6642 21.951Z" fill="#2B478B"/>
<path d="M23.7377 9.30754C22.3272 10.118 19.4401 9.37051 19.4401 9.37051C19.4401 9.37051 20.6126 8.00647 20.08 5.8101L21.1876 6.38243L22.3771 6.99691C22.3771 6.99691 22.454 7.38489 22.5074 8.08163C22.5208 8.2609 22.5333 8.46149 22.5418 8.68036C23.2661 8.90381 23.7382 9.30754 23.7382 9.30754H23.7377Z" fill="#FFB07B"/>
<path d="M28.9094 21.8047C28.9094 22.0571 28.6239 22.1775 28.563 22.1902C27.9939 22.2958 26.4057 22.9245 24.9751 23.0687C23.7702 23.1972 22.6516 23.0753 21.4227 22.824C21.26 22.7904 20.8782 22.6858 20.8507 22.5274C20.8168 22.3542 16.1108 12.7664 19.7691 8.64785C19.8549 8.55136 20.5772 8.72504 21.2375 8.8845C21.8475 9.03177 22.407 8.9495 22.9067 8.74586L23.5261 9.07748C24.2868 9.50862 25.7258 11.0408 25.894 12.2428C25.9794 12.8542 26.3233 13.3067 26.4226 13.8445C26.4596 14.0436 26.497 14.2381 26.5354 14.427C26.6103 14.7982 26.6877 15.1516 26.767 15.4878C26.9822 16.3968 27.2093 17.1794 27.4324 17.8558C27.6695 18.5739 27.9026 19.1706 28.1102 19.6703C28.3803 20.3183 28.6079 20.8023 28.7501 21.173C28.851 21.434 28.9084 21.6387 28.9084 21.8047H28.9094Z" fill="#B64C41"/>
<path d="M28.7511 21.173C22.108 17.9884 19.807 11.8741 19.807 11.8741C19.807 11.8741 25.1573 13.6632 26.489 14.1908C26.5639 14.5621 26.6882 15.1522 26.7675 15.4883C26.9827 16.3974 27.2098 17.1799 27.4329 17.8564C27.67 18.5744 27.9031 19.1711 28.1107 19.6708C28.3808 20.3188 28.6084 20.8028 28.7506 21.1735L28.7511 21.173Z" fill="#A03C37"/>
<path d="M31.1285 5.64861L31.2553 5.04023C31.2553 5.04023 30.2875 3.99968 31.4944 3.08813C31.4944 3.08813 32.0295 2.74382 32.2117 3.1384C32.3939 3.53299 32.2561 3.39993 32.5276 3.95245C32.7992 4.50497 32.7428 5.0966 32.3664 5.37489L32.1383 5.80908L31.128 5.64861H31.1285Z" fill="#FFB07B"/>
<path d="M22.5073 8.08214C21.1202 8.16136 20.2183 6.99639 20.2183 6.99639C20.2183 6.99639 20.8452 6.64294 21.1871 6.38293L22.3766 6.99741C22.3766 6.99741 22.4534 7.38539 22.5068 8.08214H22.5073Z" fill="#EA8E50"/>
<path d="M23.0978 6.63328C23.0978 6.63328 20.9964 8.16744 20.0775 6.82169C19.1586 5.47543 18.2681 4.767 19.5714 3.73052C20.8742 2.69404 21.4886 3.02159 21.9024 3.39485C22.3167 3.7681 23.6209 6.1996 23.0978 6.63379V6.63328Z" fill="#FFB07B"/>
<path d="M22.1245 2.17859C22.0491 1.66111 21.8794 1.297 21.8794 1.297C21.8794 1.297 21.7477 1.85256 20.7494 1.77588C19.7511 1.6992 18.1688 1.87592 17.6412 3.03327C17.6078 3.10691 17.5778 3.18257 17.5514 3.26027C17.456 3.00382 17.4331 2.61888 17.4331 2.61888C17.2434 3.11706 17.4331 3.74068 17.4331 3.74068C17.4301 3.75896 17.4281 3.77724 17.4251 3.79553C17.2045 3.98495 17.0198 4.57403 17.0198 4.57403C17.0862 4.40949 17.2484 4.30234 17.3931 4.23632C17.3886 5.13671 17.7475 6.01729 18.3779 6.27933C19.2994 6.66274 19.2919 6.37023 20.2188 6.99537C20.2188 6.99537 20.4674 6.68153 20.2976 6.47078C20.1279 6.26003 19.4875 5.9533 19.8454 5.64657C20.2033 5.33984 20.3351 5.68516 20.4674 5.47391C20.5991 5.26316 19.9398 4.6497 20.7878 4.07483C21.6353 3.49997 22.2004 2.69506 22.125 2.17758L22.1245 2.17859Z" fill="#233862"/>
<path d="M71.4807 40.336C71.4807 40.336 72.188 41.0028 72.0498 41.4766C71.912 41.9504 71.2736 42.2663 71.1873 42.8452C71.1009 43.4241 70.756 43.74 70.4455 43.74H68.9656C68.9656 43.74 68.737 43.3327 69.289 43.2098C69.8411 43.0869 70.0492 42.4064 70.0143 41.7752C69.9798 41.1435 70.0662 40.3015 70.0662 40.3015L71.2392 40.0206L71.4807 40.3365V40.336Z" fill="#2C3A64"/>
<path d="M62.6679 43.7151C62.6504 43.7243 62.6225 43.7324 62.5845 43.7395H58.6608C58.6922 43.5993 58.815 43.319 59.2877 43.2413C59.9056 43.1392 60.9773 42.7741 61.2164 41.9692C61.2239 41.9433 61.2309 41.9169 61.2368 41.89C61.4265 41.0302 62.8062 42.1535 62.8062 42.1535C62.8062 42.1535 62.8101 42.1876 62.8161 42.246C62.8481 42.5608 62.9304 43.5816 62.6684 43.7151H62.6679Z" fill="#2C3A64"/>
<path d="M59.4519 20.7195C59.4519 20.7195 59.6615 23.3795 59.9076 26.5763C60.2425 30.9193 60.6449 36.2541 60.6848 37.2652C60.7537 39.0202 61.0297 41.827 61.0297 41.827C61.0297 41.827 61.6846 42.4938 62.9958 42.213C62.9958 42.213 64.1638 38.2057 64.4977 33.9658C64.5027 33.8962 64.5082 33.8261 64.5132 33.756C64.8237 29.4395 65.3064 20.3508 65.3064 20.3508L59.4519 20.719V20.7195Z" fill="#B64C41"/>
<path d="M59.4519 20.7195C59.4519 20.7195 59.6615 23.3795 59.9076 26.5763L64.4977 33.9658C64.5027 33.8962 64.5082 33.8261 64.5132 33.756C64.8237 29.4395 65.3064 20.3508 65.3064 20.3508L59.4519 20.719V20.7195Z" fill="#A03C37"/>
<path d="M60.4088 21.0354C60.4088 21.0354 64.1858 30.6679 66.669 35.1947C69.1523 39.7215 69.9284 40.985 69.9284 40.985C69.9284 40.985 71.351 40.4061 71.4808 40.011C71.4808 40.011 70.5309 31.2717 68.8682 29.1414C67.9284 27.9378 66.8248 24.3251 66.7728 23.0616C66.7209 21.7981 66.4364 19.2981 66.4364 19.2981L60.4093 21.0354H60.4088Z" fill="#B64C41"/>
<path d="M60.7986 5.50082C60.7986 5.50082 58.9148 8.02932 57.375 8.18471C57.375 8.18471 57.5567 7.27468 58.0024 6.69524C57.8766 6.49668 57.7673 6.31488 57.6735 6.15237C57.3615 5.61153 57.2217 5.28754 57.2217 5.28754L57.9091 3.96971L58.3753 3.07542C58.5005 3.40298 58.6488 3.68736 58.81 3.93569C59.6396 5.21238 60.7986 5.50032 60.7986 5.50032V5.50082Z" fill="#FFB27D"/>
<path d="M58.81 3.9362C58.81 3.9362 58.814 5.33121 57.673 6.15238C57.361 5.61154 57.2213 5.28754 57.2213 5.28754L57.9086 3.96972C58.4741 3.87475 58.8095 3.93569 58.8095 3.93569L58.81 3.9362Z" fill="#ED975D"/>
<path d="M56.793 5.43532C56.793 5.43532 59.1934 4.83811 58.8045 3.32274C58.4157 1.80737 58.4641 0.709948 56.9148 1.02734C55.3659 1.34474 55.2177 2.00187 55.2262 2.53966C55.2352 3.07746 56.1581 5.55161 56.7925 5.43532H56.793Z" fill="#FFB27D"/>
<path d="M66.8158 20.592C65.7192 21.8149 58.6009 22.6853 58.804 21.7641C58.8819 21.4117 59.0057 20.7881 59.0426 19.9253C59.0516 19.7231 59.0546 19.5083 59.0521 19.2803C59.0366 18.0316 58.8265 16.4009 58.1377 14.4524C58.0858 14.3061 58.0319 14.1588 57.975 14.0095C57.6855 13.2524 57.4578 12.4622 57.3046 11.6989C57.0101 10.2323 56.9931 8.8647 57.348 8.01967C57.3495 8.01561 57.8122 6.66579 57.8142 6.66173C59.3416 6.17878 59.7804 4.97472 59.7804 4.97472C59.7804 4.97472 64.5731 6.53376 66.4554 13.5626C66.4554 13.5626 67.7696 19.5276 66.8158 20.592Z" fill="#2B478B"/>
<path d="M59.0426 19.9253C59.0516 19.7231 59.0546 19.5083 59.0521 19.2803C59.0366 18.0316 58.8265 16.4009 58.1377 14.4524C58.4247 13.4926 58.7506 12.7064 59.0396 12.3718C60.2136 11.0108 60.8141 10.8544 60.8141 10.8544C60.8141 10.8544 61.4615 17.3526 59.0426 19.9253Z" fill="#233862"/>
<path d="M59.4804 0.696747C59.5003 0.666785 59.5512 0.638854 59.6695 0.618541C59.6695 0.618541 59.5682 0.567758 59.4409 0.57893C59.3975 0.411346 59.2772 0.119343 58.9852 0.0777009C58.9852 0.0777009 59.1469 0.144735 59.1864 0.323491C58.8195 0.011175 58.0873 -0.164027 56.1531 0.214307C53.6035 0.71249 54.6357 2.31876 54.9906 2.48431C55.3455 2.64986 56.1236 1.99984 56.7496 1.98105C57.3755 1.96226 57.5936 2.87534 57.8182 2.97894C58.0423 3.08254 57.9355 2.86671 58.2056 2.70217C58.4761 2.53713 58.556 3.0216 58.508 3.34813C58.4601 3.67416 58.8969 4.04843 58.8969 4.04843L59.2448 3.56396C59.5927 3.07949 59.7634 1.17411 59.5408 0.797297C59.5213 0.763781 59.5013 0.730264 59.4814 0.696239L59.4804 0.696747Z" fill="#233862"/>
<path d="M52.4469 18.4637C52.4469 18.4637 51.5829 18.512 51.3972 18.578C51.2121 18.644 50.6281 19.1107 50.6336 19.1676C50.6395 19.2245 50.683 19.26 50.7993 19.2356C50.9156 19.2113 51.278 19.0569 51.2665 19.1097C51.255 19.1625 50.2322 19.6825 50.2802 19.9075C50.3281 20.1325 51.0324 20.3777 51.541 20.265C52.0491 20.1523 53.0799 19.356 53.1467 19.2981C53.2136 19.2402 52.4464 18.4637 52.4464 18.4637H52.4469Z" fill="#FFB27D"/>
<path d="M52.5013 18.9127C52.1814 18.4937 52.3566 18.2677 52.3566 18.2677C52.3566 18.2677 56.212 14.4569 56.506 14.0827C56.8 13.7084 57.7603 8.14917 57.7603 8.14917C57.7603 8.14917 58.3089 6.81155 59.5148 6.43677C60.563 6.11125 61.1071 5.66689 61.6571 6.24582C62.313 6.93546 62.4787 7.96737 62.0864 8.83982C61.2059 10.799 59.4235 14.6911 58.8559 15.3847C57.7608 16.7239 54.2628 18.8725 53.3544 19.419C53.2211 19.4992 53.0534 19.4814 52.9381 19.3768C52.8063 19.257 52.6341 19.0879 52.5004 18.9127H52.5013Z" fill="#2B478B"/>
<path d="M32.5102 5.46325C32.5102 5.46325 32.319 5.16059 31.8648 5.05547C31.2863 4.92191 31.0242 4.86046 31.0242 4.86046C31.0242 4.86046 28.1397 9.7397 27.9026 10.2282C27.8502 10.3359 27.7588 10.5086 27.6276 10.7452C27.5272 10.926 27.3191 11.0159 27.1219 10.962C26.0068 10.6573 24.7809 10.2694 23.8675 9.83974C22.8418 9.3573 21.6388 9.48934 20.7379 10.183L19.9957 10.7543C19.0997 11.444 19.3707 12.8796 20.4544 13.1818C23.0724 13.9125 26.8923 14.3386 28.4896 14.5265C29.2133 14.6118 30.0923 12.7857 30.5286 11.7553C30.5271 11.7553 30.5256 11.7548 30.5241 11.7543C31.458 9.61477 32.5102 5.46275 32.5102 5.46275V5.46325Z" fill="#B64C41"/>
<path d="M52.4809 11.1357L51.264 11.4028L51.2974 11.0311L51.1372 10.8056L52.3541 10.5385L52.4809 11.1357Z" fill="#F1A34F"/>
<path d="M0.158727 43.677H75.8408C75.9286 43.677 75.9995 43.7496 75.9995 43.8385C75.9995 43.9279 75.9281 44 75.8408 44H0.158727C0.0713774 44 0 43.9279 0 43.8385C0 43.7491 0.0713774 43.677 0.158727 43.677Z" fill="#2E3552"/>
</g>
<defs>
<clipPath id="clip0_93_1019">
<rect width="76" height="44" fill="white"/>
</clipPath>
</defs>
</svg>
