<svg width="18" height="18" viewBox="0 0 18 18" fill="none" xmlns="http://www.w3.org/2000/svg">
<path d="M8.45474 2.76519C8.38707 2.69359 8.33418 2.60936 8.29906 2.51731C8.26395 2.42527 8.24731 2.32721 8.2501 2.22873C8.25289 2.13025 8.27504 2.03329 8.3153 1.94337C8.35556 1.85346 8.41313 1.77236 8.48474 1.70469C8.55634 1.63703 8.64057 1.58413 8.73262 1.54902C8.82466 1.51391 8.92272 1.49727 9.0212 1.50006C9.11968 1.50284 9.21664 1.525 9.30656 1.56526C9.39647 1.60551 9.47757 1.66309 9.54524 1.73469L15.9202 8.48469C16.0519 8.62394 16.1252 8.80831 16.1252 8.99994C16.1252 9.19158 16.0519 9.37594 15.9202 9.51519L9.54524 16.2659C9.47802 16.3391 9.39693 16.3982 9.30669 16.4398C9.21644 16.4813 9.11884 16.5046 9.01954 16.5081C8.92025 16.5116 8.82124 16.4954 8.72827 16.4603C8.6353 16.4253 8.55023 16.3721 8.47799 16.3039C8.40575 16.2356 8.34778 16.1538 8.30746 16.0629C8.26713 15.9721 8.24525 15.8742 8.24309 15.7749C8.24093 15.6756 8.25852 15.5768 8.29486 15.4843C8.33119 15.3918 8.38554 15.3075 8.45474 15.2362L14.3437 8.99994L8.45474 2.76519Z" fill="black"/>
</svg>
