<svg width="21" height="21" viewBox="0 0 21 21" fill="none" xmlns="http://www.w3.org/2000/svg">
<path d="M13.5625 12.25H12.8713L12.6263 12.0138C13.5135 10.9848 14.001 9.67112 14 8.3125C14 7.18762 13.6664 6.088 13.0415 5.1527C12.4165 4.21739 11.5283 3.48841 10.489 3.05794C9.44976 2.62746 8.30619 2.51483 7.20293 2.73429C6.09966 2.95374 5.08624 3.49542 4.29083 4.29083C3.49542 5.08624 2.95374 6.09966 2.73429 7.20293C2.51483 8.30619 2.62746 9.44976 3.05794 10.489C3.48841 11.5283 4.21739 12.4165 5.1527 13.0415C6.088 13.6664 7.18762 14 8.3125 14C9.72125 14 11.0163 13.4838 12.0138 12.6263L12.25 12.8713V13.5625L16.625 17.9288L17.9288 16.625L13.5625 12.25ZM8.3125 12.25C6.13375 12.25 4.375 10.4913 4.375 8.3125C4.375 6.13375 6.13375 4.375 8.3125 4.375C10.4913 4.375 12.25 6.13375 12.25 8.3125C12.25 10.4913 10.4913 12.25 8.3125 12.25Z" fill="black"/>
</svg>
