<svg width="16" height="16" viewBox="0 0 16 16" fill="none" xmlns="http://www.w3.org/2000/svg">
<path d="M11.5625 10.25H10.8713L10.6263 10.0138C11.5135 8.98481 12.001 7.67112 12 6.3125C12 5.18762 11.6664 4.088 11.0415 3.1527C10.4165 2.21739 9.52827 1.48841 8.48901 1.05794C7.44976 0.627464 6.30619 0.514833 5.20293 0.734286C4.09966 0.95374 3.08624 1.49542 2.29083 2.29083C1.49542 3.08624 0.95374 4.09966 0.734286 5.20293C0.514833 6.30619 0.627464 7.44976 1.05794 8.48901C1.48841 9.52827 2.21739 10.4165 3.1527 11.0415C4.088 11.6664 5.18762 12 6.3125 12C7.72125 12 9.01625 11.4838 10.0138 10.6263L10.25 10.8713V11.5625L14.625 15.9288L15.9288 14.625L11.5625 10.25ZM6.3125 10.25C4.13375 10.25 2.375 8.49125 2.375 6.3125C2.375 4.13375 4.13375 2.375 6.3125 2.375C8.49125 2.375 10.25 4.13375 10.25 6.3125C10.25 8.49125 8.49125 10.25 6.3125 10.25Z" fill="black"/>
</svg>
