<svg width="32" height="30" viewBox="0 0 32 30" fill="none" xmlns="http://www.w3.org/2000/svg">
<path d="M14.8541 21.4258V8.51619C14.8545 8.38867 14.8298 8.26232 14.7813 8.14439C14.7328 8.02645 14.6615 7.91925 14.5715 7.82892C14.4815 7.7386 14.3745 7.66693 14.2567 7.61803C14.139 7.56913 14.0127 7.54396 13.8852 7.54396H10.6611V14.1458H4.19295V7.54396H0.972229C0.844554 7.54396 0.71813 7.56911 0.600173 7.61797C0.482217 7.66683 0.375039 7.73844 0.284759 7.82872C0.102431 8.01105 0 8.25834 0 8.51619L0 21.4258C0 21.6836 0.102431 21.9309 0.284759 22.1133C0.375039 22.2035 0.482217 22.2752 0.600173 22.324C0.71813 22.3729 0.844554 22.398 0.972229 22.398H13.8852C14.0127 22.398 14.139 22.3729 14.2567 22.324C14.3745 22.2751 14.4815 22.2034 14.5715 22.1131C14.6615 22.0227 14.7328 21.9155 14.7813 21.7976C14.8298 21.6797 14.8545 21.5533 14.8541 21.4258ZM8.96723 18.0614H5.89017C5.80156 18.0614 5.71659 18.0262 5.65393 17.9636C5.59127 17.9009 5.55607 17.8159 5.55607 17.7273C5.55607 17.6387 5.59127 17.5537 5.65393 17.4911C5.71659 17.4284 5.80156 17.3932 5.89017 17.3932H8.96723C9.05584 17.3932 9.14082 17.4284 9.20347 17.4911C9.26613 17.5537 9.30133 17.6387 9.30133 17.7273C9.30133 17.8159 9.26613 17.9009 9.20347 17.9636C9.14082 18.0262 9.05584 18.0614 8.96723 18.0614Z" fill="#233E55"/>
<path d="M4.87115 7.54396H9.98288V13.4675H4.87115V7.54396Z" fill="#233E55"/>
<path d="M31.0278 7.54396H27.8071V14.1458H21.3355V7.54396H18.1148C17.9873 7.54396 17.861 7.56913 17.7433 7.61803C17.6255 7.66693 17.5186 7.7386 17.4285 7.82892C17.3385 7.91925 17.2672 8.02645 17.2187 8.14439C17.1702 8.26232 17.1455 8.38867 17.1459 8.51619V21.4258C17.1455 21.5533 17.1702 21.6797 17.2187 21.7976C17.2672 21.9155 17.3385 22.0227 17.4285 22.1131C17.5186 22.2034 17.6255 22.2751 17.7433 22.324C17.861 22.3729 17.9873 22.398 18.1148 22.398H31.0278C31.1555 22.398 31.2819 22.3729 31.3998 22.324C31.5178 22.2752 31.625 22.2035 31.7152 22.1133C31.8055 22.023 31.8771 21.9158 31.926 21.7979C31.9749 21.6799 32 21.5535 32 21.4258V8.51619C32 8.38852 31.9749 8.26209 31.926 8.14413C31.8771 8.02618 31.8055 7.919 31.7152 7.82872C31.625 7.73844 31.5178 7.66683 31.3998 7.61797C31.2819 7.56911 31.1555 7.54396 31.0278 7.54396ZM26.1098 18.0614H23.0328C22.9442 18.0614 22.8592 18.0262 22.7965 17.9636C22.7339 17.9009 22.6987 17.8159 22.6987 17.7273C22.6987 17.6387 22.7339 17.5537 22.7965 17.4911C22.8592 17.4284 22.9442 17.3932 23.0328 17.3932H26.1098C26.1984 17.3932 26.2834 17.4284 26.3461 17.4911C26.4087 17.5537 26.4439 17.6387 26.4439 17.7273C26.4439 17.8159 26.4087 17.9009 26.3461 17.9636C26.2834 18.0262 26.1984 18.0614 26.1098 18.0614Z" fill="#233E55"/>
<path d="M22.0172 7.54396H27.1289V13.4675H22.0172V7.54396Z" fill="#233E55"/>
<path d="M13.0232 24.5229L9.21777 27.2324L13.0232 29.942V28.5087H22.9626V25.9595H13.0232V24.5229Z" fill="#233E55"/>
<path d="M19.1539 5.41909L22.9626 2.70955L19.1539 0V1.43329H9.21777V3.97913H19.1539V5.41909Z" fill="#233E55"/>
</svg>
