<svg width="412" height="71" viewBox="0 0 412 71" fill="none" xmlns="http://www.w3.org/2000/svg">
<path opacity="0.67" d="M0 46.8003C19.9108 51.2789 34.7162 45.8051 74.9539 17.5233C96.5163 2.36781 158.416 -21.8798 233.924 49.5461C235.346 50.8906 236.892 52.2237 238.617 53.1487C271.798 70.9504 306.585 -0.930991 412 11.7457" stroke="#EFF3FF"/>
<path opacity="0.67" d="M0 53.8003C19.9108 58.2789 34.7162 52.8051 74.9539 24.5233C96.5163 9.36781 158.416 -14.8798 233.924 56.5461C235.346 57.8906 236.892 59.2237 238.617 60.1487C271.798 77.9504 306.585 6.06901 412 18.7457" stroke="#EFF3FF"/>
<path opacity="0.67" d="M0 60.8004C19.9108 65.2789 34.7162 59.8051 74.9539 31.5233C96.5163 16.3678 157.353 -7.62765 232.841 63.8025C234.262 65.1473 235.809 66.4807 237.534 67.4042C270.767 85.197 306.583 13.0688 412 25.7457" stroke="#EFF3FF"/>
</svg>
