<svg width="22" height="22" viewBox="0 0 22 22" fill="none" xmlns="http://www.w3.org/2000/svg">
<path d="M11.6481 2.10191L19.8981 10.3519C20.4756 10.9294 20.0668 11.9167 19.2501 11.9167H18.3334V17.4167C18.3334 18.146 18.0437 18.8455 17.5279 19.3612C17.0122 19.8769 16.3127 20.1667 15.5834 20.1667H14.6667V13.75C14.6668 13.0486 14.3988 12.3736 13.9175 11.8633C13.4363 11.3529 12.7783 11.0457 12.0781 11.0046L11.9167 11H10.0834C9.35404 11 8.65457 11.2897 8.13885 11.8055C7.62312 12.3212 7.33339 13.0207 7.33339 13.75V20.1667H6.41672C5.68738 20.1667 4.9879 19.8769 4.47218 19.3612C3.95645 18.8455 3.66672 18.146 3.66672 17.4167V11.9167H2.75006C1.93422 11.9167 1.52447 10.9294 2.10197 10.3519L10.352 2.10191C10.5239 1.93007 10.757 1.83353 11.0001 1.83353C11.2431 1.83353 11.4762 1.93007 11.6481 2.10191ZM11.9167 12.8333C12.1598 12.8333 12.393 12.9299 12.5649 13.1018C12.7368 13.2737 12.8334 13.5069 12.8334 13.75V20.1667H9.16672V13.75C9.16675 13.5255 9.24918 13.3088 9.39838 13.141C9.54757 12.9732 9.75316 12.866 9.97614 12.8397L10.0834 12.8333H11.9167Z" fill="#233E55"/>
</svg>
