<svg width="20" height="20" viewBox="0 0 20 20" fill="none" xmlns="http://www.w3.org/2000/svg">
<path d="M14.0219 4.65002C14.0705 4.53536 14.1381 4.42972 14.2219 4.33752C14.3937 4.12502 14.5844 3.88752 14.5125 3.61877C14.4406 3.35002 14.1594 3.24377 13.9094 3.14377C13.7892 3.10914 13.6768 3.05186 13.5781 2.97502C13.5651 2.85693 13.5725 2.73748 13.6 2.62189C13.6432 2.49241 13.6556 2.3546 13.6361 2.21949C13.6165 2.08437 13.5657 1.9557 13.4875 1.84377C13.3762 1.76548 13.2479 1.71475 13.1132 1.69573C12.9784 1.67672 12.8411 1.68997 12.7125 1.73439C12.5956 1.76034 12.4754 1.76772 12.3562 1.75627C12.2822 1.65813 12.2252 1.54827 12.1875 1.43127C12.0906 1.18127 11.9812 0.90002 11.7156 0.828145C11.45 0.75627 11.2062 0.950019 10.9969 1.11877C10.9049 1.2028 10.7992 1.27044 10.6844 1.31877C10.5695 1.27044 10.4639 1.2028 10.3719 1.11877C10.1625 0.950019 9.92187 0.75627 9.65312 0.828145C9.38437 0.90002 9.27812 1.18127 9.18125 1.43439C9.14392 1.55347 9.08688 1.66544 9.0125 1.76564C8.89334 1.77699 8.77313 1.76961 8.65625 1.74377C8.52764 1.69934 8.39031 1.68609 8.25557 1.70511C8.12084 1.72412 7.99254 1.77486 7.88125 1.85314C7.80309 1.96508 7.75222 2.09375 7.73268 2.22886C7.71315 2.36397 7.7255 2.50178 7.76875 2.63127C7.80356 2.74558 7.81836 2.86505 7.8125 2.98439C7.71384 3.06124 7.60141 3.11852 7.48125 3.15314C7.23125 3.25002 6.94687 3.36252 6.87812 3.62814C6.80937 3.89377 6.99687 4.13439 7.16875 4.34689C7.25249 4.4391 7.3201 4.54474 7.36875 4.65939C7.31994 4.77397 7.25234 4.87959 7.16875 4.97189C6.99687 5.18439 6.80625 5.42189 6.87812 5.69064C6.95 5.95939 7.23125 6.06564 7.48125 6.16252C7.60037 6.19974 7.71236 6.25679 7.8125 6.33127C7.82559 6.4504 7.81819 6.57089 7.79062 6.68752C7.74737 6.81701 7.73502 6.95482 7.75456 7.08993C7.77409 7.22504 7.82497 7.35371 7.90312 7.46564C8.01442 7.54393 8.14271 7.59467 8.27745 7.61368C8.41219 7.6327 8.54951 7.61945 8.67812 7.57502C8.79477 7.54757 8.91524 7.54017 9.03437 7.55314C9.10875 7.65335 9.1658 7.76532 9.20312 7.88439C9.3 8.13439 9.40937 8.41877 9.675 8.49064C9.71384 8.50045 9.75369 8.50569 9.79375 8.50627C10.0227 8.47115 10.2337 8.36128 10.3937 8.19377C10.4857 8.10974 10.5914 8.0421 10.7062 7.99377C10.8211 8.0421 10.9268 8.10974 11.0187 8.19377C11.2281 8.36252 11.4656 8.55627 11.7375 8.48439C12.0094 8.41252 12.0906 8.12502 12.1875 7.86877C12.2248 7.74969 12.2819 7.63772 12.3562 7.53752C12.4754 7.52455 12.5958 7.53195 12.7125 7.55939C12.8411 7.60382 12.9784 7.61707 13.1132 7.59806C13.2479 7.57904 13.3762 7.5283 13.4875 7.45002C13.5657 7.33809 13.6165 7.20942 13.6361 7.0743C13.6556 6.93919 13.6432 6.80138 13.6 6.67189C13.5725 6.55631 13.5651 6.43686 13.5781 6.31877C13.6772 6.24193 13.7895 6.18369 13.9094 6.14689C14.1594 6.05002 14.4437 5.94064 14.5125 5.67502C14.5812 5.40939 14.3937 5.16877 14.2219 4.95627C14.1389 4.86585 14.0713 4.76238 14.0219 4.65002Z" fill="#DA1E28"/>
<path d="M11.7969 5.2063C11.6268 5.20631 11.4605 5.25679 11.3191 5.35136C11.1777 5.44592 11.0676 5.58032 11.0026 5.73754C10.9377 5.89475 10.9208 6.0677 10.9542 6.23449C10.9877 6.40128 11.0698 6.55439 11.1903 6.67446C11.3108 6.79452 11.4642 6.87612 11.6311 6.90892C11.798 6.94173 11.9709 6.92426 12.1279 6.85874C12.2849 6.79321 12.4189 6.68258 12.5129 6.54085C12.607 6.39911 12.6569 6.23265 12.6562 6.06255C12.6562 5.94985 12.634 5.83825 12.5908 5.73416C12.5475 5.63007 12.4842 5.53554 12.4044 5.45599C12.3245 5.37644 12.2297 5.31343 12.1255 5.27058C12.0213 5.22774 11.9096 5.20589 11.7969 5.2063Z" fill="white"/>
<path d="M10.4407 3.23754C10.4407 3.06744 10.3902 2.90117 10.2956 2.75978C10.2011 2.61839 10.0667 2.50824 9.90944 2.44329C9.75223 2.37834 9.57928 2.3615 9.41249 2.39492C9.2457 2.42833 9.09258 2.51049 8.97252 2.63099C8.85246 2.75149 8.77086 2.9049 8.73806 3.07181C8.70525 3.23872 8.72272 3.41161 8.78824 3.56858C8.85376 3.72556 8.9644 3.85956 9.10613 3.95361C9.24787 4.04766 9.41432 4.09754 9.58442 4.09692C9.69713 4.09692 9.80873 4.07467 9.91282 4.03144C10.0169 3.98822 10.1114 3.92487 10.191 3.84502C10.2705 3.76518 10.3335 3.67042 10.3764 3.56618C10.4192 3.46193 10.4411 3.35025 10.4407 3.23754Z" fill="white"/>
<path d="M11.8126 2.4063C11.7853 2.39236 11.7556 2.38396 11.7251 2.38161C11.6945 2.37925 11.6639 2.38298 11.6348 2.39257C11.6057 2.40216 11.5788 2.41743 11.5557 2.43749C11.5326 2.45755 11.5137 2.482 11.5001 2.50943L9.46259 6.57193C9.44236 6.60931 9.43253 6.65143 9.43413 6.69391C9.43573 6.73638 9.4487 6.77765 9.47168 6.8134C9.49467 6.84916 9.52682 6.87809 9.5648 6.89718C9.60278 6.91627 9.64518 6.92481 9.68759 6.92193C9.73141 6.92247 9.77446 6.91038 9.81159 6.88711C9.84872 6.86383 9.87836 6.83035 9.89697 6.79068L11.9345 2.72818C11.9489 2.69925 11.9572 2.66765 11.9588 2.63537C11.9604 2.60309 11.9554 2.57082 11.9439 2.54059C11.9325 2.51036 11.9149 2.48282 11.8923 2.45971C11.8697 2.4366 11.8426 2.41842 11.8126 2.4063Z" fill="white"/>
<path d="M14.8594 1.97186C14.8078 2.00306 14.7704 2.0532 14.7552 2.11158C14.7401 2.16996 14.7483 2.23196 14.7782 2.28436C15.2003 3.00197 15.4265 3.81787 15.4342 4.65039C15.4419 5.4829 15.2307 6.30283 14.8219 7.02811C14.7926 7.08126 14.7853 7.14382 14.8017 7.20229C14.818 7.26075 14.8567 7.31044 14.9094 7.34061C14.9444 7.36143 14.9844 7.37224 15.0251 7.37186C15.0663 7.37141 15.1067 7.36023 15.1424 7.33941C15.178 7.31858 15.2076 7.28884 15.2282 7.25311C15.6786 6.4566 15.9114 5.55557 15.9031 4.64058C15.8949 3.72559 15.646 2.82889 15.1813 2.04061C15.1475 1.98916 15.0947 1.9531 15.0345 1.94023C14.9742 1.92736 14.9114 1.93873 14.8594 1.97186Z" fill="#DA1E28"/>
<path d="M16.4938 1.30001C16.4623 1.24614 16.4107 1.20699 16.3504 1.19116C16.29 1.17534 16.2258 1.18414 16.172 1.21564C16.1181 1.24713 16.0789 1.29874 16.0631 1.3591C16.0473 1.41946 16.0561 1.48364 16.0876 1.53751C16.6433 2.48351 16.9402 3.55912 16.9484 4.65623C16.9566 5.75334 16.6759 6.83328 16.1345 7.78751C16.1051 7.84066 16.0978 7.90322 16.1142 7.96169C16.1306 8.02016 16.1693 8.06984 16.222 8.10001C16.2569 8.12083 16.2969 8.13164 16.3376 8.13126C16.3788 8.13082 16.4193 8.11963 16.4549 8.09881C16.4905 8.07799 16.5201 8.04824 16.5407 8.01251C17.1241 6.9856 17.4269 5.82321 17.4187 4.64217C17.4105 3.46113 17.0915 2.30307 16.4938 1.28439V1.30001Z" fill="#DA1E28"/>
<path d="M6.52195 1.97189C6.46901 1.94306 6.40699 1.93575 6.3488 1.95146C6.2906 1.96718 6.24069 2.00471 6.20945 2.05626C5.74481 2.84454 5.49587 3.74124 5.48764 4.65623C5.47941 5.57122 5.71219 6.47225 6.16257 7.26876C6.1832 7.30449 6.21278 7.33423 6.2484 7.35506C6.28402 7.37588 6.32444 7.38706 6.3657 7.38751C6.40638 7.38789 6.44638 7.37708 6.48132 7.35626C6.53401 7.32609 6.57272 7.2764 6.58909 7.21794C6.60547 7.15947 6.59819 7.09691 6.56883 7.04376C6.15958 6.31851 5.94846 5.49831 5.95668 4.66561C5.96491 3.8329 6.1922 3.01703 6.6157 2.30001C6.63205 2.27255 6.64262 2.24203 6.64674 2.21034C6.65087 2.17864 6.64847 2.14644 6.63968 2.1157C6.6309 2.08497 6.61593 2.05636 6.59568 2.03162C6.57544 2.00689 6.55034 1.98656 6.52195 1.97189Z" fill="#DA1E28"/>
<path d="M5.20945 1.21584C5.1565 1.18702 5.09449 1.17971 5.03629 1.19542C4.9781 1.21113 4.92819 1.24867 4.89695 1.30022C4.29929 2.3189 3.98032 3.47696 3.97209 4.658C3.96386 5.83904 4.26667 7.00143 4.85007 8.02834C4.8707 8.06408 4.90028 8.09382 4.9359 8.11464C4.97151 8.13546 5.01194 8.14665 5.0532 8.14709C5.09388 8.14747 5.13387 8.13666 5.16882 8.11584C5.22151 8.08567 5.26022 8.03599 5.27659 7.97752C5.29296 7.91905 5.28568 7.85649 5.25632 7.80334C4.71488 6.84911 4.43416 5.76917 4.44239 4.67206C4.45062 3.57496 4.7475 2.49934 5.3032 1.55334C5.32114 1.52554 5.33298 1.49425 5.33796 1.46154C5.34294 1.42883 5.34094 1.39543 5.33208 1.36355C5.32322 1.33167 5.30772 1.30202 5.28658 1.27656C5.26544 1.25111 5.23916 1.23041 5.20945 1.21584Z" fill="#DA1E28"/>
<path d="M15.3938 10.35C15.0964 10.355 14.8106 10.4658 14.5875 10.6625V9.8688C14.5899 9.62591 14.5224 9.38745 14.3932 9.18177C14.264 8.97609 14.0784 8.81182 13.8586 8.70849C13.6388 8.60516 13.3939 8.5671 13.1531 8.59884C12.9122 8.63058 12.6856 8.73079 12.5 8.88755V7.75317C12.5012 7.51112 12.4332 7.27377 12.3039 7.06914C12.1746 6.86451 11.9894 6.70114 11.7703 6.59831C11.5512 6.49548 11.3072 6.45748 11.0672 6.48879C10.8271 6.52011 10.6011 6.61944 10.4157 6.77505V5.74692C10.4191 5.49192 10.3459 5.24177 10.2054 5.02893C10.0649 4.81609 9.86368 4.6504 9.62784 4.55336C9.392 4.45633 9.13243 4.43244 8.88284 4.48479C8.63324 4.53713 8.40515 4.66331 8.22817 4.84692C8.10855 4.96416 8.01372 5.10425 7.9493 5.25885C7.88488 5.41346 7.85219 5.57944 7.85317 5.74692V10.1688C7.8526 10.3995 7.78375 10.625 7.65529 10.8166C7.52683 11.0083 7.34451 11.1577 7.1313 11.2459C6.91809 11.3341 6.68353 11.3573 6.45719 11.3124C6.23086 11.2675 6.02286 11.1567 5.85942 10.9938L4.73754 9.87192C4.49471 9.64755 4.17437 9.52601 3.84382 9.53282C3.51327 9.53964 3.19821 9.67428 2.96483 9.90847C2.73145 10.1427 2.5979 10.4582 2.59223 10.7888C2.58656 11.1193 2.70921 11.4392 2.93442 11.6813L3.80629 12.55C4.86018 13.6292 5.75651 14.8517 6.46879 16.1813C6.93714 17.0357 7.62733 17.748 8.46661 18.243C9.30589 18.738 10.2632 18.9974 11.2375 18.9938C11.6485 18.9936 12.0582 18.9485 12.4594 18.8594C14.7407 18.3594 16.6688 15.8907 16.6688 13.4657V11.6219C16.668 11.2843 16.5333 10.9608 16.2943 10.7224C16.0552 10.4839 15.7314 10.35 15.3938 10.35Z" fill="#F06000"/>
<path d="M15.3938 10.35C15.0964 10.355 14.8106 10.4658 14.5875 10.6625V9.8688C14.5899 9.62591 14.5224 9.38745 14.3932 9.18177C14.264 8.97609 14.0784 8.81182 13.8586 8.70849C13.6388 8.60516 13.3939 8.5671 13.1531 8.59884C12.9122 8.63058 12.6856 8.73079 12.5 8.88755V7.75317C12.5012 7.51112 12.4332 7.27377 12.3039 7.06914C12.1746 6.86451 11.9894 6.70114 11.7703 6.59831C11.5512 6.49548 11.3072 6.45748 11.0672 6.48879C10.8271 6.52011 10.6011 6.61944 10.4157 6.77505V5.74692C10.4191 5.49192 10.3459 5.24177 10.2054 5.02893C10.0649 4.81609 9.86368 4.6504 9.62784 4.55336C9.392 4.45633 9.13243 4.43244 8.88284 4.48479C8.63324 4.53713 8.40515 4.66331 8.22817 4.84692C8.10855 4.96416 8.01372 5.10425 7.9493 5.25885C7.88488 5.41346 7.85219 5.57944 7.85317 5.74692V10.1688C7.8526 10.3995 7.78375 10.625 7.65529 10.8166C7.52683 11.0083 7.34451 11.1577 7.1313 11.2459C6.91809 11.3341 6.68353 11.3573 6.45719 11.3124C6.23086 11.2675 6.02286 11.1567 5.85942 10.9938L4.73754 9.87192C4.49471 9.64755 4.17437 9.52601 3.84382 9.53282C3.51327 9.53964 3.19821 9.67428 2.96483 9.90847C2.73145 10.1427 2.5979 10.4582 2.59223 10.7888C2.58656 11.1193 2.70921 11.4392 2.93442 11.6813L3.80629 12.55C4.86018 13.6292 5.75651 14.8517 6.46879 16.1813C6.93714 17.0357 7.62733 17.748 8.46661 18.243C9.30589 18.738 10.2632 18.9974 11.2375 18.9938C11.6485 18.9936 12.0582 18.9485 12.4594 18.8594C14.7407 18.3594 16.6688 15.8907 16.6688 13.4657V11.6219C16.668 11.2843 16.5333 10.9608 16.2943 10.7224C16.0552 10.4839 15.7314 10.35 15.3938 10.35ZM16.2 13.475C16.2 15.6969 14.4407 17.9563 12.3594 18.4125C11.3022 18.6558 10.1944 18.5472 9.20449 18.1033C8.21459 17.6594 7.39667 16.9044 6.87504 15.9532C6.14912 14.5866 5.23383 13.3294 4.15629 12.2188L3.28754 11.3469C3.21224 11.2723 3.15247 11.1834 3.11168 11.0855C3.07089 10.9877 3.04989 10.8827 3.04989 10.7766C3.04989 10.6706 3.07089 10.5656 3.11168 10.4677C3.15247 10.3698 3.21224 10.281 3.28754 10.2063C3.43917 10.0557 3.64418 9.97123 3.85786 9.97123C4.07154 9.97123 4.27655 10.0557 4.42817 10.2063L5.55004 11.3313C5.79776 11.5759 6.11674 11.7355 6.46101 11.7872C6.80528 11.8389 7.15706 11.7799 7.46567 11.6188C7.73083 11.4816 7.95306 11.2739 8.10797 11.0187C8.26288 10.7635 8.34447 10.4705 8.34379 10.1719V5.74692C8.34471 5.53249 8.43003 5.32704 8.58129 5.17505C8.65584 5.10024 8.7445 5.041 8.84214 5.00077C8.93978 4.96053 9.04444 4.9401 9.15004 4.94067C9.36333 4.9415 9.5676 5.02681 9.71813 5.17792C9.86866 5.32903 9.95317 5.53363 9.95317 5.74692V12.55C9.95452 12.6119 9.97905 12.671 10.0219 12.7157C10.0551 12.748 10.097 12.7699 10.1425 12.7787C10.188 12.7875 10.235 12.7828 10.2778 12.7652C10.3207 12.7476 10.3574 12.7178 10.3836 12.6796C10.4097 12.6414 10.4242 12.5964 10.425 12.55V7.75317C10.425 7.53934 10.51 7.33427 10.6612 7.18307C10.8124 7.03187 11.0175 6.94692 11.2313 6.94692C11.4451 6.94692 11.6502 7.03187 11.8014 7.18307C11.9526 7.33427 12.0375 7.53934 12.0375 7.75317V12.55C12.0375 12.6122 12.0622 12.6718 12.1062 12.7158C12.1501 12.7597 12.2098 12.7844 12.2719 12.7844C12.3341 12.7844 12.3937 12.7597 12.4376 12.7158C12.4816 12.6718 12.5063 12.6122 12.5063 12.55V9.8688C12.5063 9.65497 12.5912 9.44989 12.7424 9.29869C12.8936 9.14749 13.0987 9.06255 13.3125 9.06255C13.5264 9.06255 13.7314 9.14749 13.8826 9.29869C14.0338 9.44989 14.1188 9.65497 14.1188 9.8688V12.55C14.1188 12.6122 14.1435 12.6718 14.1874 12.7158C14.2314 12.7597 14.291 12.7844 14.3532 12.7844C14.3842 12.7848 14.415 12.7791 14.4438 12.7675C14.4726 12.7559 14.4988 12.7387 14.5209 12.7169C14.543 12.6951 14.5606 12.6691 14.5725 12.6405C14.5845 12.6118 14.5907 12.5811 14.5907 12.55V11.6125C14.5909 11.5068 14.6119 11.4021 14.6527 11.3045C14.6934 11.2069 14.7531 11.1183 14.8282 11.0438C14.9022 10.9692 14.9904 10.9101 15.0875 10.8699C15.1846 10.8296 15.2887 10.8091 15.3938 10.8094C15.6071 10.8094 15.8117 10.8939 15.9628 11.0445C16.1139 11.195 16.1992 11.3993 16.2 11.6125V13.475Z" fill="#FCDFCC"/>
</svg>
